<?xml version="1.0" encoding="utf-8"?>
<!-- Generator: Adobe Illustrator 15.0.2, SVG Export Plug-In . SVG Version: 6.00 Build 0)  -->
<!DOCTYPE svg PUBLIC "-//W3C//DTD SVG 1.1//EN" "http://www.w3.org/Graphics/SVG/1.1/DTD/svg11.dtd">
<svg version="1.1" id="Calque_1" xmlns="http://www.w3.org/2000/svg" xmlns:xlink="http://www.w3.org/1999/xlink" x="0px" y="0px"
	 width="80px" height="24px" viewBox="0 0 80 24" enable-background="new 0 0 80 24" xml:space="preserve">
<g>
	<g>
		<rect x="4.939" y="14.027" fill="#9595A4" width="2.77" height="4.299"/>
		<path fill="#EEEBE8" d="M8.209,18.826h-3.77v-5.299h3.77V18.826z M5.439,17.826h1.77v-3.299h-1.77V17.826z"/>
	</g>
	<g>
		<rect x="9.35" y="11.002" fill="#9595A4" width="2.771" height="7.324"/>
		<path fill="#EEEBE8" d="M12.621,18.826H8.85v-8.324h3.771V18.826z M9.85,17.826h1.771v-6.324H9.85V17.826z"/>
	</g>
	<g>
		<rect x="13.757" y="7.979" fill="#9595A4" width="2.772" height="10.347"/>
		<path fill="#EEEBE8" d="M17.029,18.826h-3.772V7.479h3.772V18.826z M14.257,17.826h1.772V8.479h-1.772V17.826z"/>
	</g>
	<g>
		<rect x="18.169" y="4.957" fill="#9595A4" width="2.77" height="13.37"/>
		<path fill="#EEEBE8" d="M21.439,18.826h-3.77V4.457h3.77V18.826z M18.669,17.826h1.77V5.457h-1.77V17.826z"/>
	</g>
</g>
</svg>
