<?xml version="1.0" encoding="utf-8"?>
<!-- Generator: Adobe Illustrator 15.0.0, SVG Export Plug-In . SVG Version: 6.00 Build 0)  -->
<!DOCTYPE svg PUBLIC "-//W3C//DTD SVG 1.1//EN" "http://www.w3.org/Graphics/SVG/1.1/DTD/svg11.dtd">
<svg version="1.1" id="Calque_1" xmlns="http://www.w3.org/2000/svg" xmlns:xlink="http://www.w3.org/1999/xlink" x="0px" y="0px"
	 width="80px" height="24px" viewBox="0 0 80 24" enable-background="new 0 0 80 24" xml:space="preserve">
<g>
	<g>
		<path fill="#808090" d="M16.543,7.596c-0.678,0-1.23-0.552-1.23-1.23V5.275c0-0.154,0.006-0.293,0.017-0.418l0.08-0.961
			l0.74,0.618c0.162,0.135,0.345,0.3,0.538,0.493l1.214,1.215c0.193,0.192,0.358,0.379,0.493,0.541l0.615,0.742l-0.96,0.076
			c-0.123,0.01-0.262,0.016-0.416,0.016H16.543z"/>
		<path fill="#EEEBE8" d="M15.828,4.898c0.152,0.127,0.325,0.282,0.506,0.463l1.214,1.214c0.181,0.181,0.336,0.355,0.462,0.507
			c-0.111,0.009-0.237,0.014-0.376,0.014h-1.091c-0.402,0-0.73-0.328-0.73-0.73V5.275C15.813,5.136,15.819,5.01,15.828,4.898
			 M14.99,2.894l-0.159,1.921c-0.011,0.137-0.019,0.291-0.019,0.459v1.091c0,0.954,0.776,1.73,1.73,1.73h1.091
			c0.168,0,0.321-0.007,0.455-0.017l1.921-0.152l-1.23-1.483c-0.167-0.201-0.344-0.396-0.525-0.576l-1.213-1.213
			c-0.186-0.186-0.378-0.361-0.571-0.523L14.99,2.894L14.99,2.894z"/>
	</g>
	<g>
		<g>
			<path fill="#808090" d="M9.638,19.955c-0.678,0-1.23-0.552-1.23-1.23v-1.953h11.183v1.953c0,0.679-0.552,1.23-1.23,1.23H9.638z"
				/>
			<path fill="#EEEBE8" d="M19.091,17.271v1.09v0.363c0,0.402-0.327,0.73-0.73,0.73H9.638c-0.403,0-0.73-0.328-0.73-0.73v-0.363
				v-1.09c0.299,0,0.687,0,1.094,0h7.995C18.404,17.271,18.793,17.271,19.091,17.271 M20.091,16.271h-1h-1.094h-7.995H8.908h-1v1
				v1.09v0.363c0,0.954,0.776,1.73,1.73,1.73h8.723c0.954,0,1.73-0.776,1.73-1.73v-0.363v-1.09V16.271L20.091,16.271z"/>
		</g>
		<g>
			<path fill="#808090" d="M8.408,17.042v-4.861c0-0.678,0.552-1.23,1.23-1.23h8.723c0.679,0,1.231,0.552,1.231,1.23v4.861H8.408z"
				/>
			<path fill="#EEEBE8" d="M18.361,11.451c0.404,0,0.731,0.328,0.731,0.73v3.271v1.09c-0.298,0-0.687,0-1.094,0h-7.996
				c-0.406,0-0.795,0-1.094,0v-1.09v-3.271c0-0.402,0.327-0.73,0.73-0.73H18.361 M18.361,10.451H9.638
				c-0.954,0-1.73,0.776-1.73,1.73v3.271v1.09v1h1h1.094h7.996h1.094h1v-1v-1.09v-3.271C20.092,11.227,19.315,10.451,18.361,10.451
				L18.361,10.451z"/>
		</g>
	</g>
	<g>
		<g>
			<path fill="#808090" d="M6.73,18.501c-0.678,0-1.23-0.552-1.23-1.229v-3.635c0-0.819,0.344-1.708,0.666-2.023
				c0.313-0.316,1.203-0.659,2.019-0.659h1.081l-0.445,0.754c-0.09,0.152-0.136,0.312-0.136,0.476l-0.002,6.317H6.73z"/>
			<path fill="#EEEBE8" d="M8.39,11.454c-0.127,0.215-0.205,0.462-0.205,0.73v3.271c0,0.492,0,0.96,0,1.271c0,0.037,0,0.17,0,0.362
				c0,0.233,0,0.558-0.001,0.912H6.73c-0.402,0-0.73-0.328-0.73-0.729v-3.635c0-0.705,0.305-1.459,0.516-1.667
				c0.21-0.211,0.964-0.516,1.669-0.516H8.39 M10.143,10.454H8.39H8.185c-0.882,0-1.927,0.356-2.378,0.812
				C5.358,11.706,5,12.751,5,13.637v3.635c0,0.954,0.776,1.729,1.73,1.729h1.454h0.997l0.003-0.997l0.001-0.915v-0.362v-1.271
				v-3.271c0-0.074,0.021-0.146,0.066-0.221L10.143,10.454L10.143,10.454z"/>
		</g>
		<g>
			<path fill="#808090" d="M19.315,18.498v-6.317c0-0.163-0.046-0.323-0.136-0.477l-0.443-0.753h1.079
				c0.814,0,1.704,0.342,2.023,0.662c0.32,0.321,0.662,1.209,0.661,2.021v3.636c0,0.678-0.552,1.229-1.23,1.229H19.315z"/>
			<path fill="#EEEBE8" d="M19.815,11.451c0.705,0,1.459,0.305,1.67,0.516c0.21,0.21,0.515,0.965,0.514,1.666v3.637
				c0,0.4-0.328,0.729-0.73,0.729h-1.454c0-0.354,0-0.68,0-0.912c0-0.191,0-0.324,0-0.361c0-0.311,0-0.779,0-1.272v-3.271
				c0-0.267-0.078-0.514-0.205-0.73H19.815 M19.815,10.451H19.61h-1.749l0.887,1.507c0.045,0.077,0.067,0.15,0.067,0.223v3.271
				v1.272v0.361v0.912v1h1h1.454c0.954,0,1.73-0.775,1.73-1.729v-3.637c0.001-0.875-0.353-1.918-0.806-2.372
				C21.739,10.806,20.694,10.451,19.815,10.451L19.815,10.451z"/>
		</g>
	</g>
	<g>
		<g>
			<path fill="#808090" d="M9.135,11.227V5.275c0-0.678,0.552-1.23,1.23-1.23h5.354l-0.083,0.572
				c-0.028,0.194-0.046,0.417-0.046,0.658v1.092c0,0.526,0.428,0.954,0.953,0.954h1.091c0.241,0,0.463-0.018,0.658-0.046
				l0.573-0.084v4.038L9.135,11.227z"/>
			<path fill="#EEEBE8" d="M15.142,4.545c-0.031,0.215-0.051,0.462-0.051,0.73v1.092c0,0.8,0.653,1.454,1.453,1.454h1.091
				c0.267,0,0.514-0.02,0.73-0.052v1.323v1.636l-8.73-0.001V5.275c0-0.402,0.327-0.73,0.73-0.73h3.454H15.142 M16.298,3.545h-1.156
				h-1.323h-3.454c-0.954,0-1.73,0.776-1.73,1.73v5.452v1h1l8.73,0.001h1v-1V9.092V7.769V6.612L18.22,6.78
				c-0.187,0.027-0.383,0.041-0.585,0.041h-1.091c-0.246,0-0.453-0.208-0.453-0.454V5.275c0-0.202,0.014-0.399,0.041-0.586
				L16.298,3.545L16.298,3.545z"/>
		</g>
	</g>
</g>
</svg>
