<?xml version="1.0" encoding="utf-8"?>
<!-- Generator: Adobe Illustrator 15.0.2, SVG Export Plug-In . SVG Version: 6.00 Build 0)  -->
<!DOCTYPE svg PUBLIC "-//W3C//DTD SVG 1.1//EN" "http://www.w3.org/Graphics/SVG/1.1/DTD/svg11.dtd">
<svg version="1.1" id="Calque_1" xmlns="http://www.w3.org/2000/svg" xmlns:xlink="http://www.w3.org/1999/xlink" x="0px" y="0px"
	 width="34px" height="34px" viewBox="0 0 34 34" enable-background="new 0 0 34 34" xml:space="preserve">
<g>
	<path fill="#D31147" d="M32.5,30c0,2.2-1.743,4-3.875,4H5.375C3.244,34,1.5,32.2,1.5,30V4c0-2.2,1.744-4,3.875-4h23.25
		C30.757,0,32.5,1.8,32.5,4V30z"/>
</g>
<path fill="#2E2E2D" d="M16.989,8c-5.072,0-4.827,6.265-4.827,6.265s-0.704-0.092-0.704,0.948c0,1.039,0.734,1.039,0.734,1.039
	c0,1.07,2.048,2.842,2.048,2.842v0.61C9.871,19.704,8.676,26,8.676,26h16.648c0,0-1.191-6.296-5.562-6.296v-0.61
	c0,0,2.047-1.772,2.047-2.842c0,0,0.733,0,0.733-1.039s-0.701-0.948-0.701-0.948S22.086,8,17.015,8H16.989z"/>
</svg>
