<?xml version="1.0" encoding="utf-8"?>
<!-- Generator: Adobe Illustrator 15.0.2, SVG Export Plug-In . SVG Version: 6.00 Build 0)  -->
<!DOCTYPE svg PUBLIC "-//W3C//DTD SVG 1.1//EN" "http://www.w3.org/Graphics/SVG/1.1/DTD/svg11.dtd">
<svg version="1.1" id="Calque_1" xmlns="http://www.w3.org/2000/svg" xmlns:xlink="http://www.w3.org/1999/xlink" x="0px" y="0px"
	 width="24px" height="24px" viewBox="0 0 24 24" enable-background="new 0 0 24 24" xml:space="preserve">
<g>
	<path fill="#808090" d="M16.916,4.013h-1.809l-0.024,5.5c0,0.009-0.007,0.016-0.017,0.016H6.407c-0.009,0-0.016-0.007-0.016-0.016
		v-5.5H4v15.975h16V7.043L16.916,4.013z M18.13,19.136H6.079v-8.239H18.13V19.136z"/>
	<rect x="10.492" y="4.624" fill="#808090" width="3.453" height="4.062"/>
	<polygon fill="#808090" points="16.966,13.089 16.965,13.089 7.173,13.089 7.173,14.063 16.965,14.063 	"/>
	<polygon fill="#808090" points="16.966,15.951 16.83,15.951 7.294,15.951 7.173,15.951 7.173,16.924 16.966,16.924 	"/>
</g>
<g>
	<path fill="#EEEBE8" d="M16.916,4.013L20,7.043v12.944H4V4.013h2.391v5.5c0,0.009,0.008,0.016,0.017,0.016h8.659
		c0.01,0,0.017-0.007,0.017-0.016l0.024-5.5H16.916 M6.079,19.136H18.13v-8.239H6.079V19.136 M17.325,3.013h-0.409h-1.809h-0.995
		l-0.005,0.996l-0.021,4.52H7.391V4.013v-1h-1H4H3v1v15.975v1h1h16h1v-1V7.043V6.624L20.701,6.33l-3.084-3.03L17.325,3.013
		L17.325,3.013z M7.079,11.896H17.13v6.239H7.079V11.896L7.079,11.896z"/>
	<path fill="#EEEBE8" d="M13.945,4.624v4.062h-3.453V4.624H13.945 M14.945,3.624h-1h-3.453h-1v1v4.062l0,0h1h3.453h1l0,0V4.624
		V3.624L14.945,3.624z"/>
	<path fill="#EEEBE8" d="M16.966,13.089l-0.001,0.975H7.173v-0.975H16.966L16.966,13.089 M17.967,12.089h-1.001H7.173h-1v1v0.975v1
		h1h9.792h0.999l0.001-0.999l0.001-0.975L17.967,12.089L17.967,12.089z"/>
	<path fill="#EEEBE8" d="M16.966,15.951v0.973H7.173v-0.973h0.121h9.536H16.966 M17.966,14.951h-1H16.83H7.294H7.173h-1v1v0.973v1h1
		h9.793h1v-1v-0.973V14.951L17.966,14.951z"/>
</g>
</svg>
