<?xml version="1.0" encoding="utf-8"?>
<!-- Generator: Adobe Illustrator 15.0.2, SVG Export Plug-In . SVG Version: 6.00 Build 0)  -->
<!DOCTYPE svg PUBLIC "-//W3C//DTD SVG 1.1//EN" "http://www.w3.org/Graphics/SVG/1.1/DTD/svg11.dtd">
<svg version="1.1" id="Calque_1" xmlns="http://www.w3.org/2000/svg" xmlns:xlink="http://www.w3.org/1999/xlink" x="0px" y="0px"
	 width="24px" height="24px" viewBox="0 0 24 24" enable-background="new 0 0 24 24" xml:space="preserve">
<g id="exit-to-app">
	<path fill="#808090" d="M8.8,10.311l-1.244,1.245L12,16l4.443-4.444L15.2,10.311l-2.312,2.312V4H11.11v8.623L8.8,10.311z
		 M20,18.223V5.778C20,4.8,19.2,4,18.223,4h-3.556v1.777h3.556v12.446H5.777V5.777h3.557V4H5.777C4.8,4,4,4.8,4,5.778v12.445
		C4,19.2,4.8,20,5.777,20h12.446C19.2,20,20,19.2,20,18.223z"/>
</g>
<g id="exit-to-app_1_">
	<path fill="#EEEBE8" d="M18.223,4C19.2,4,20,4.8,20,5.778v12.445C20,19.2,19.2,20,18.223,20H5.777C4.8,20,4,19.2,4,18.223V5.778
		C4,4.8,4.8,4,5.777,4h3.557v1.777H5.777v12.446h12.445V5.777h-3.556V4H18.223 M12.889,4v8.623l2.312-2.312l1.243,1.245L12,16
		l-4.443-4.444L8.8,10.311l2.31,2.312V4H12.889 M18.223,3h-3.556h-0.778h-1h-1.779h-1H9.334H5.777C4.246,3,3,4.246,3,5.778v12.445
		C3,19.754,4.246,21,5.777,21h12.445C19.754,21,21,19.754,21,18.223V5.778C21,4.246,19.754,3,18.223,3L18.223,3z M13.889,6.777
		h0.778h2.556v4.145l-0.071-0.072l-1.243-1.245L15.2,8.896l-0.707,0.708l-0.604,0.604V6.777L13.889,6.777z M6.777,6.777h2.557h0.775
		v3.43L9.507,9.604L8.8,8.896L8.092,9.604L6.849,10.85l-0.072,0.072V6.777L6.777,6.777z M12.191,17.223l0.516-0.516l4.443-4.444
		l0.072-0.072v5.032H12.191L12.191,17.223z M6.777,17.223v-5.032l0.072,0.072l4.443,4.444l0.516,0.516H6.777L6.777,17.223z"/>
</g>
</svg>
