<?xml version="1.0" encoding="utf-8"?>
<!-- Generator: Adobe Illustrator 15.0.2, SVG Export Plug-In . SVG Version: 6.00 Build 0)  -->
<!DOCTYPE svg PUBLIC "-//W3C//DTD SVG 1.1//EN" "http://www.w3.org/Graphics/SVG/1.1/DTD/svg11.dtd">
<svg version="1.1" id="Calque_1" xmlns="http://www.w3.org/2000/svg" xmlns:xlink="http://www.w3.org/1999/xlink" x="0px" y="0px"
	 width="34px" height="34px" viewBox="0 0 34 34" enable-background="new 0 0 34 34" xml:space="preserve">
<g>
	<path fill="#F01B57" d="M32.5,30c0,2.2-1.743,4-3.875,4H5.375C3.244,34,1.5,32.2,1.5,30V4c0-2.2,1.744-4,3.875-4h23.25
		C30.757,0,32.5,1.8,32.5,4V30z"/>
</g>
<g>
	<path fill="#0A7039" d="M7.182,9l9.005,9.008c0.217,0.216,0.502,0.334,0.813,0.334c0.312,0,0.598-0.118,0.813-0.334L26.819,9H7.182
		z"/>
	<g>
		<path fill="#0A7039" d="M20.445,17.019l-1.793,1.793c-0.443,0.444-1.029,0.665-1.615,0.665s-1.168-0.221-1.614-0.665l-1.83-1.832
			l-7.54,7.541c-0.05,0.053-0.099,0.092-0.148,0.133C6.112,24.867,6.402,25,6.723,25h20.555c0.321,0,0.611-0.135,0.818-0.346
			c-0.051-0.041-0.098-0.082-0.148-0.133L20.445,17.019z"/>
	</g>
	<g>
		<path fill="#0A7039" d="M6.091,9.479C6.034,9.421,5.994,9.363,5.946,9.309c-0.227,0.21-0.371,0.507-0.371,0.839v13.243
			l7.215-7.214L6.091,9.479z"/>
		<path fill="#0A7039" d="M27.984,9.479l-6.736,6.735l7.178,7.176V10.147c0-0.312-0.128-0.594-0.33-0.8
			C28.057,9.39,28.029,9.434,27.984,9.479z"/>
	</g>
</g>
</svg>
