<?xml version="1.0" encoding="utf-8"?>
<!-- Generator: Adobe Illustrator 15.0.2, SVG Export Plug-In . SVG Version: 6.00 Build 0)  -->
<!DOCTYPE svg PUBLIC "-//W3C//DTD SVG 1.1//EN" "http://www.w3.org/Graphics/SVG/1.1/DTD/svg11.dtd">
<svg version="1.1" id="Calque_1" xmlns="http://www.w3.org/2000/svg" xmlns:xlink="http://www.w3.org/1999/xlink" x="0px" y="0px"
	 width="80px" height="24px" viewBox="0 0 80 24" enable-background="new 0 0 80 24" xml:space="preserve">
<g>
	<path fill="#9595A4" d="M21.27,13.362l-2.603-2.604c-0.489-0.487-1.14-0.757-1.833-0.757c-0.36,0-0.707,0.075-1.026,0.212
		c0.394-0.941,0.21-2.069-0.555-2.835l-2.603-2.603c-0.488-0.489-1.14-0.758-1.834-0.758c-0.693,0-1.344,0.27-1.832,0.758
		L6.786,6.971c-1.011,1.012-1.011,2.656,0,3.666l2.603,2.604c0.488,0.488,1.141,0.758,1.833,0.758c0.359,0,0.706-0.075,1.025-0.212
		c-0.394,0.941-0.211,2.068,0.555,2.835l2.603,2.603c0.489,0.49,1.14,0.759,1.834,0.759c0.693,0,1.344-0.269,1.833-0.759
		l2.198-2.196C22.28,16.017,22.28,14.373,21.27,13.362z M11.222,11.937c-0.081,0-0.242-0.02-0.376-0.154L8.244,9.182
		c-0.205-0.205-0.205-0.551,0-0.754l2.197-2.195c0.134-0.133,0.293-0.155,0.375-0.155c0.084,0,0.244,0.022,0.377,0.155l2.603,2.603
		C14,9.037,14,9.382,13.796,9.587l-0.349,0.348L12.99,9.478c-0.337-0.337-0.891-0.337-1.228,0L11.5,9.741
		c-0.338,0.337-0.338,0.89,0,1.228l0.457,0.457l-0.358,0.358C11.465,11.917,11.304,11.937,11.222,11.937z M19.812,15.573
		l-2.197,2.193c-0.134,0.136-0.293,0.155-0.375,0.155c-0.086,0-0.244-0.02-0.378-0.155l-2.603-2.601
		c-0.205-0.204-0.205-0.55,0-0.754L14.6,14.07l0.592,0.593c0.337,0.34,0.89,0.34,1.228,0l0.263-0.264
		c0.338-0.339,0.338-0.891,0-1.229l-0.591-0.591l0.363-0.363c0.134-0.136,0.293-0.155,0.375-0.155c0.082,0,0.244,0.019,0.377,0.153
		l2.603,2.602C20.017,15.021,20.017,15.365,19.812,15.573z"/>
	<path fill="#EEEBE8" d="M17.239,20.483c-0.829,0-1.606-0.321-2.188-0.905l-2.602-2.603c-0.669-0.67-0.982-1.587-0.889-2.495
		c-0.925,0.109-1.862-0.223-2.525-0.886L6.432,10.99c-1.205-1.204-1.206-3.166,0-4.373L8.63,4.422c1.163-1.167,3.208-1.167,4.373,0
		l2.603,2.603c0.669,0.67,0.982,1.587,0.889,2.495c0.928-0.101,1.861,0.222,2.525,0.884l2.604,2.604
		c1.205,1.205,1.205,3.167,0,4.373l-2.198,2.196C18.843,20.162,18.067,20.483,17.239,20.483z M13.185,12.842l-0.476,1.139
		c-0.33,0.788-0.154,1.686,0.447,2.288l2.602,2.603c0.787,0.789,2.171,0.792,2.959,0l2.198-2.196c0.815-0.816,0.815-2.144,0-2.959
		l-2.603-2.604c-0.594-0.593-1.52-0.777-2.309-0.438l-1.136,0.487l0.477-1.14c0.33-0.788,0.154-1.687-0.447-2.29l-2.603-2.603
		c-0.788-0.789-2.171-0.79-2.958,0L7.139,7.325c-0.815,0.816-0.815,2.144,0,2.958l2.603,2.604c0.594,0.594,1.518,0.778,2.309,0.439
		L13.185,12.842z M17.239,18.422c-0.279,0-0.54-0.107-0.733-0.304l-2.601-2.599c-0.193-0.192-0.3-0.452-0.3-0.73
		s0.106-0.538,0.3-0.73l0.695-0.695l0.946,0.946c0.14,0.141,0.382,0.14,0.52,0.001l0.264-0.265c0.144-0.144,0.144-0.379,0-0.522
		l-0.944-0.944l0.717-0.717c0.19-0.193,0.45-0.301,0.729-0.301c0.162,0,0.471,0.039,0.731,0.3l2.603,2.601
		c0.4,0.399,0.402,1.055,0.003,1.461l-2.201,2.196C17.776,18.314,17.517,18.422,17.239,18.422z M14.982,15.142l2.233,2.271
		l2.244-2.193l-2.604-2.651L16.82,12.6l0.217,0.217c0.533,0.534,0.533,1.402,0,1.937l-0.263,0.264
		C16.305,15.489,15.503,15.539,14.982,15.142z M11.222,12.437c-0.161,0-0.469-0.039-0.73-0.301L7.89,9.535
		c-0.194-0.194-0.301-0.455-0.3-0.733c0-0.278,0.107-0.537,0.302-0.729l2.195-2.194c0.193-0.192,0.459-0.302,0.729-0.302
		c0.16,0,0.468,0.039,0.73,0.302l2.603,2.603c0.193,0.191,0.299,0.451,0.299,0.729c0,0.277-0.106,0.536-0.298,0.729l-0.703,0.703
		l-0.811-0.811c-0.138-0.138-0.384-0.137-0.521,0l-0.261,0.262c-0.07,0.07-0.108,0.162-0.108,0.26c0,0.099,0.038,0.191,0.107,0.26
		l0.811,0.811l-0.711,0.711C11.692,12.398,11.383,12.437,11.222,12.437z M10.816,6.077l0,0.5c-0.014,0-0.021,0.008-0.024,0.01
		L8.597,8.781l2.602,2.648l0.029-0.026l-0.082-0.082c-0.258-0.257-0.4-0.601-0.4-0.968c0-0.367,0.143-0.71,0.401-0.968l0.261-0.261
		c0.489-0.489,1.33-0.52,1.851-0.078l-2.42-2.461L10.816,6.077z"/>
</g>
</svg>
