<?xml version="1.0" encoding="utf-8"?>
<!-- Generator: Adobe Illustrator 15.0.2, SVG Export Plug-In . SVG Version: 6.00 Build 0)  -->
<!DOCTYPE svg PUBLIC "-//W3C//DTD SVG 1.1//EN" "http://www.w3.org/Graphics/SVG/1.1/DTD/svg11.dtd">
<svg version="1.1" id="Calque_1" xmlns="http://www.w3.org/2000/svg" xmlns:xlink="http://www.w3.org/1999/xlink" x="0px" y="0px"
	 width="175px" height="34px" viewBox="-37 0 175 34" enable-background="new -37 0 175 34" xml:space="preserve">
<g>
	<path fill="#D31147" d="M31,30c0,2.2-1.743,4-3.875,4H3.875C1.744,34,0,32.2,0,30V4c0-2.2,1.744-4,3.875-4h23.25
		C29.257,0,31,1.8,31,4V30z"/>
</g>
<path fill="#2E2E2D" d="M15.489,8c-5.072,0-4.827,6.265-4.827,6.265s-0.704-0.092-0.704,0.948c0,1.039,0.734,1.039,0.734,1.039
	c0,1.07,2.048,2.842,2.048,2.842v0.61C8.371,19.704,7.176,26,7.176,26h16.648c0,0-1.191-6.296-5.563-6.296v-0.61
	c0,0,2.047-1.771,2.047-2.842c0,0,0.733,0,0.733-1.039s-0.701-0.948-0.701-0.948S20.586,8,15.515,8H15.489z"/>
<g>
	<path fill="#D31147" d="M-4,30c0,2.2-1.743,4-3.875,4h-23.25C-33.256,34-35,32.2-35,30V4c0-2.2,1.744-4,3.875-4h23.25
		C-5.743,0-4,1.8-4,4V30z"/>
</g>
<path fill="#2E2E2D" d="M-19.511,8c-5.072,0-4.827,6.265-4.827,6.265s-0.704-0.092-0.704,0.948c0,1.039,0.734,1.039,0.734,1.039
	c0,1.07,2.048,2.842,2.048,2.842v0.61c-4.369,0-5.564,6.296-5.564,6.296h16.648c0,0-1.191-6.296-5.563-6.296v-0.61
	c0,0,2.047-1.771,2.047-2.842c0,0,0.733,0,0.733-1.039s-0.701-0.948-0.701-0.948S-14.414,8-19.485,8H-19.511z"/>
<g>
	<path fill="#F01B57" d="M66,30c0,2.2-1.743,4-3.875,4h-23.25C36.744,34,35,32.2,35,30V4c0-2.2,1.744-4,3.875-4h23.25
		C64.257,0,66,1.8,66,4V30z"/>
</g>
<path fill="#0A7039" d="M50.489,8c-5.072,0-4.827,6.265-4.827,6.265s-0.704-0.092-0.704,0.948c0,1.039,0.734,1.039,0.734,1.039
	c0,1.07,2.048,2.842,2.048,2.842v0.61c-4.369,0-5.564,6.296-5.564,6.296h16.648c0,0-1.191-6.296-5.563-6.296v-0.61
	c0,0,2.047-1.771,2.047-2.842c0,0,0.733,0,0.733-1.039s-0.701-0.948-0.701-0.948S55.586,8,50.515,8H50.489z"/>
<g>
	<path fill="#F01B57" d="M101,30c0,2.2-1.743,4-3.875,4h-23.25C71.744,34,70,32.2,70,30V4c0-2.2,1.744-4,3.875-4h23.25
		C99.257,0,101,1.8,101,4V30z"/>
</g>
<path fill="#0A7039" d="M85.488,8c-5.071,0-4.826,6.265-4.826,6.265s-0.704-0.092-0.704,0.948c0,1.039,0.733,1.039,0.733,1.039
	c0,1.07,2.049,2.842,2.049,2.842v0.61c-4.369,0-5.564,6.296-5.564,6.296h16.648c0,0-1.191-6.296-5.563-6.296v-0.61
	c0,0,2.047-1.771,2.047-2.842c0,0,0.732,0,0.732-1.039s-0.701-0.948-0.701-0.948S90.586,8,85.516,8H85.488z"/>
<g>
	<path fill="#F01B57" d="M136,30c0,2.2-1.743,4-3.875,4h-23.25c-2.131,0-3.875-1.8-3.875-4V4c0-2.2,1.744-4,3.875-4h23.25
		C134.257,0,136,1.8,136,4V30z"/>
</g>
<path fill="#0A7039" d="M120.488,8c-5.071,0-4.826,6.265-4.826,6.265s-0.704-0.092-0.704,0.948c0,1.039,0.733,1.039,0.733,1.039
	c0,1.07,2.049,2.842,2.049,2.842v0.61c-4.369,0-5.564,6.296-5.564,6.296h16.648c0,0-1.191-6.296-5.563-6.296v-0.61
	c0,0,2.047-1.771,2.047-2.842c0,0,0.732,0,0.732-1.039s-0.701-0.948-0.701-0.948S125.586,8,120.516,8H120.488z"/>
</svg>
