<?xml version="1.0" encoding="utf-8"?>
<!-- Generator: Adobe Illustrator 15.0.2, SVG Export Plug-In . SVG Version: 6.00 Build 0)  -->
<!DOCTYPE svg PUBLIC "-//W3C//DTD SVG 1.1//EN" "http://www.w3.org/Graphics/SVG/1.1/DTD/svg11.dtd">
<svg version="1.1" id="Calque_1" xmlns="http://www.w3.org/2000/svg" xmlns:xlink="http://www.w3.org/1999/xlink" x="0px" y="0px"
	 width="80px" height="24px" viewBox="0 0 80 24" enable-background="new 0 0 80 24" xml:space="preserve">
<g>
	<path fill="#9595A4" d="M9.266,15.656L5.258,12l4.001-3.65l3.652-4.001l3.652,4.001L20.564,12l-4.007,3.656l-3.646,3.996
		L9.266,15.656z M16.105,15.193v-2.322h-2.258v2.322H16.105z M12.039,15.193v-2.322H9.717v2.322H12.039z M16.105,11.064V8.806
		h-2.258v2.258H16.105z M12.039,11.064V8.806H9.717v2.258H12.039z"/>
	<path fill="#EEEBE8" d="M12.911,5.09l2.935,3.216h-2.499v3.258h3.258V9.065L19.822,12l-3.217,2.936v-2.564h-3.258v3.322h2.499
		l-2.935,3.217l-2.935-3.217h2.563v-3.322H9.217v2.564L6,12l3.217-2.935v2.499h3.322V8.306H9.976L12.911,5.09 M12.911,3.606
		l-0.739,0.81L9.237,7.632L8.906,7.996L8.543,8.326l-3.217,2.935L4.516,12l0.81,0.738l3.217,2.936l0.368,0.336l0.326,0.357
		l2.935,3.217l0.739,0.81l0.739-0.81l2.935-3.217l0.326-0.357l0.368-0.336l3.217-2.936L21.306,12l-0.81-0.739l-3.217-2.935
		l-0.362-0.331l-0.332-0.364L13.65,4.416L12.911,3.606L12.911,3.606z M14.347,9.306h1.258v1.258h-1.258V9.306L14.347,9.306z
		 M10.217,9.306h1.322v1.258h-1.322V9.306L10.217,9.306z M14.347,13.371h1.258v1.322h-1.258V13.371L14.347,13.371z M10.217,13.371
		h1.322v1.322h-1.322V13.371L10.217,13.371z"/>
</g>
</svg>
