<?xml version="1.0" encoding="utf-8"?>
<!-- Generator: Adobe Illustrator 15.0.2, SVG Export Plug-In . SVG Version: 6.00 Build 0)  -->
<!DOCTYPE svg PUBLIC "-//W3C//DTD SVG 1.1//EN" "http://www.w3.org/Graphics/SVG/1.1/DTD/svg11.dtd">
<svg version="1.1" id="Calque_1" xmlns="http://www.w3.org/2000/svg" xmlns:xlink="http://www.w3.org/1999/xlink" x="0px" y="0px"
	 width="80px" height="24px" viewBox="0 0 80 24" enable-background="new 0 0 80 24" xml:space="preserve">
<g>
	<g>
		<rect x="4.939" y="14.027" fill="#808090" width="2.77" height="4.301"/>
		<path fill="#EEEBE8" d="M8.209,18.828h-3.77v-5.301h3.77V18.828z M5.439,17.828h1.77v-3.301h-1.77V17.828z"/>
	</g>
	<g>
		<rect x="9.35" y="11.004" fill="#808090" width="2.771" height="7.324"/>
		<path fill="#EEEBE8" d="M12.621,18.828H8.85v-8.324h3.771V18.828z M9.85,17.828h1.771v-6.324H9.85V17.828z"/>
	</g>
	<g>
		<rect x="13.757" y="7.981" fill="#808090" width="2.772" height="10.347"/>
		<path fill="#EEEBE8" d="M17.029,18.828h-3.772V7.481h3.772V18.828z M14.257,17.828h1.772V8.481h-1.772V17.828z"/>
	</g>
	<g>
		<rect x="18.169" y="4.957" fill="#808090" width="2.77" height="13.372"/>
		<path fill="#EEEBE8" d="M21.439,18.828h-3.77V4.457h3.77V18.828z M18.669,17.828h1.77V5.457h-1.77V17.828z"/>
	</g>
</g>
</svg>
