<?xml version="1.0" encoding="utf-8"?>
<!-- Generator: Adobe Illustrator 15.0.2, SVG Export Plug-In . SVG Version: 6.00 Build 0)  -->
<!DOCTYPE svg PUBLIC "-//W3C//DTD SVG 1.1//EN" "http://www.w3.org/Graphics/SVG/1.1/DTD/svg11.dtd">
<svg version="1.1" id="Calque_1" xmlns="http://www.w3.org/2000/svg" xmlns:xlink="http://www.w3.org/1999/xlink" x="0px" y="0px"
	 width="80px" height="24px" viewBox="0 0 80 24" enable-background="new 0 0 80 24" xml:space="preserve">
<g>
	<g>
		<path fill="#9595A4" d="M16.462,5.335c-0.227,0-0.446,1.376-0.662,1.421l-2.707,4.409l2.65,1.497l-0.916,5.125
			c0.55-0.516,1.159-1.072,1.61-1.439c2.204-1.807,4.482-3.671,4.482-6.56C20.922,7.167,19.089,5.335,16.462,5.335z"/>
		<path fill="#EEEBE8" d="M14.071,19.182l1.118-6.259l-2.793-1.577l3.112-5.039c0.043-0.114,0.096-0.283,0.132-0.397
			c0.189-0.601,0.338-1.075,0.822-1.075c1.404,0,2.671,0.494,3.568,1.39c0.897,0.896,1.391,2.162,1.39,3.563
			c0,3.122-2.368,5.063-4.659,6.941c-0.378,0.308-0.896,0.771-1.592,1.423L14.071,19.182z M13.791,10.985l2.508,1.416l-0.719,4.022
			c0.207-0.182,0.387-0.336,0.543-0.463c2.115-1.734,4.297-3.522,4.297-6.172c0-1.151-0.379-2.138-1.097-2.855
			c-0.665-0.665-1.563-1.039-2.607-1.091c-0.042,0.115-0.089,0.264-0.122,0.369c-0.127,0.404-0.229,0.726-0.426,0.902L13.791,10.985
			z"/>
	</g>
	<g>
		<path fill="#9595A4" d="M9.592,12.283l2.686-4.368C11.54,7.294,10.523,5.336,9.38,5.336c-2.625,0-4.46,1.831-4.46,4.452
			c0,2.889,2.276,4.753,4.48,6.56c0.744,0.609,1.919,1.727,2.534,2.316l0.819-4.592L9.592,12.283z"/>
		<path fill="#EEEBE8" d="M12.263,19.672l-0.674-0.647c-1.129-1.083-1.971-1.854-2.504-2.29C6.79,14.854,4.42,12.912,4.42,9.788
			c0-2.916,2.04-4.952,4.96-4.952c1.022,0,1.811,0.998,2.507,1.878c0.266,0.336,0.517,0.654,0.713,0.818l0.33,0.277l-2.64,4.293
			l3.018,1.708L12.263,19.672z M9.38,5.836c-2.332,0-3.96,1.625-3.96,3.952c0,2.65,2.183,4.439,4.294,6.17
			c0.441,0.362,1.075,0.933,1.892,1.702l0.594-3.327l-3.305-1.87l2.75-4.471c-0.175-0.194-0.355-0.421-0.542-0.657
			C10.603,6.703,9.918,5.836,9.38,5.836z"/>
	</g>
</g>
</svg>
