<?xml version="1.0" encoding="utf-8"?>
<!-- Generator: Adobe Illustrator 15.0.2, SVG Export Plug-In . SVG Version: 6.00 Build 0)  -->
<!DOCTYPE svg PUBLIC "-//W3C//DTD SVG 1.1//EN" "http://www.w3.org/Graphics/SVG/1.1/DTD/svg11.dtd">
<svg version="1.1" id="Calque_1" xmlns="http://www.w3.org/2000/svg" xmlns:xlink="http://www.w3.org/1999/xlink" x="0px" y="0px"
	 width="24px" height="24px" viewBox="0 0 24 24" enable-background="new 0 0 24 24" xml:space="preserve">
<g id="place">
	<path fill="#9595A4" d="M12,4C8.88,4,6.399,6.48,6.399,9.6C6.399,13.762,12,20,12,20s5.602-6.238,5.602-10.4
		C17.602,6.48,15.119,4,12,4z M12,11.6c-1.12,0-2.001-0.88-2.001-2s0.881-2,2.001-2c1.119,0,2,0.88,2,2S13.119,11.6,12,11.6z"/>
</g>
<g id="place_1_">
	<path fill="#EEEBE8" d="M12,4c3.119,0,5.602,2.48,5.602,5.6C17.602,13.762,12,20,12,20S6.399,13.762,6.399,9.6
		C6.399,6.48,8.88,4,12,4 M12,11.6c1.119,0,2-0.88,2-2s-0.881-2-2-2c-1.12,0-2.001,0.88-2.001,2S10.88,11.6,12,11.6 M12,3
		C8.298,3,5.399,5.899,5.399,9.6c0,4.493,5.618,10.801,5.857,11.068L12,21.497l0.744-0.829c0.239-0.267,5.857-6.575,5.857-11.068
		C18.602,5.899,15.702,3,12,3L12,3z M12,10.6c-0.571,0-1.001-0.43-1.001-1s0.43-1,1.001-1c0.57,0,1,0.43,1,1S12.57,10.6,12,10.6
		L12,10.6z"/>
</g>
</svg>
