<?xml version="1.0" encoding="utf-8"?>
<!-- Generator: Adobe Illustrator 15.0.0, SVG Export Plug-In . SVG Version: 6.00 Build 0)  -->
<!DOCTYPE svg PUBLIC "-//W3C//DTD SVG 1.1//EN" "http://www.w3.org/Graphics/SVG/1.1/DTD/svg11.dtd">
<svg version="1.1" id="Calque_1" xmlns="http://www.w3.org/2000/svg" xmlns:xlink="http://www.w3.org/1999/xlink" x="0px" y="0px"
	 width="80px" height="24px" viewBox="0 0 80 24" enable-background="new 0 0 80 24" xml:space="preserve">
<g>
	<path fill="#808090" d="M7.517,20.5c-0.535,0-1.039-0.207-1.419-0.584c-0.383-0.379-0.595-0.885-0.598-1.425
		c-0.002-0.539,0.206-1.047,0.585-1.429l4.192-4.232c-0.456-0.904-0.695-1.892-0.695-2.88c0-0.518,0.063-1.038,0.187-1.544
		C10.488,5.517,13.059,3.5,16.022,3.5c0.525,0,1.045,0.063,1.552,0.188c2.886,0.712,4.901,3.283,4.901,6.252
		c0,0.354-0.03,0.709-0.089,1.063l0.02,0.005l-0.238,0.97l-0.02-0.005c-0.866,2.626-3.315,4.42-6.118,4.42
		c-0.518,0-1.037-0.063-1.543-0.187c-0.449-0.108-0.897-0.28-1.361-0.521l-4.178,4.216C8.567,20.288,8.059,20.5,7.517,20.5z
		 M16.027,6.322c-1.669,0-3.115,1.136-3.517,2.763c-0.07,0.282-0.105,0.574-0.105,0.868c0,0.715,0.223,1.419,0.645,2.037
		c0.26,0.38,0.571,0.697,0.926,0.941c0.368,0.256,0.767,0.437,1.186,0.54c0.283,0.069,0.576,0.104,0.87,0.104
		c1.674,0,3.121-1.135,3.518-2.759c0.069-0.285,0.104-0.579,0.104-0.872c0-1.671-1.134-3.117-2.758-3.514
		C16.611,6.357,16.319,6.322,16.027,6.322z"/>
	<path fill="#EEEBE8" d="M16.022,4c0.001,0,0.003,0,0.004,0c0.47,0,0.951,0.056,1.428,0.174c2.707,0.668,4.521,3.092,4.521,5.767
		c0,0.473-0.057,0.952-0.174,1.432l-0.883-0.218l0.883,0.219c-0.669,2.708-3.096,4.521-5.771,4.521
		c-0.472,0-0.948-0.056-1.425-0.172c-0.569-0.138-1.087-0.375-1.569-0.656l-4.443,4.484C8.298,19.85,7.907,20,7.517,20
		c-0.385,0-0.772-0.146-1.068-0.439c-0.594-0.588-0.6-1.551-0.009-2.146l4.454-4.496c-0.515-0.89-0.811-1.906-0.811-2.969
		c0-0.471,0.056-0.949,0.173-1.425C10.929,5.817,13.347,4,16.022,4 M16.031,14.074c1.853,0,3.543-1.258,4.004-3.14
		c0.081-0.335,0.119-0.666,0.119-0.991c0-1.85-1.258-3.539-3.139-4c-0.333-0.083-0.663-0.121-0.988-0.121
		c-1.85,0-3.538,1.261-4.002,3.143c-0.082,0.33-0.12,0.66-0.12,0.987c0,0.842,0.271,1.644,0.732,2.319
		c0.283,0.415,0.635,0.782,1.055,1.071c0.399,0.276,0.85,0.49,1.35,0.613C15.373,14.036,15.705,14.074,16.031,14.074 M16.027,3
		h-0.004c-3.193,0-5.964,2.173-6.737,5.284C9.151,8.833,9.083,9.392,9.083,9.95c0,0.948,0.204,1.895,0.593,2.777l-3.947,3.983
		C5.257,17.188,4.997,17.82,5,18.494c0.003,0.673,0.268,1.305,0.746,1.777C6.22,20.741,6.85,21,7.517,21
		c0.676,0,1.311-0.265,1.787-0.746l3.925-3.96c0.384,0.176,0.762,0.309,1.142,0.4c0.544,0.133,1.104,0.2,1.661,0.2
		c2.863,0,5.382-1.737,6.433-4.328l0.071,0.019l0.228-0.931c0.003-0.014,0.006-0.027,0.01-0.041l0.24-0.97l-0.07-0.017
		c0.023-0.229,0.034-0.458,0.034-0.686c0-3.2-2.172-5.971-5.281-6.738C17.148,3.068,16.587,3,16.027,3L16.027,3z M16.031,13.074
		c-0.253,0-0.506-0.03-0.751-0.091c-0.358-0.088-0.702-0.244-1.019-0.464c-0.306-0.21-0.574-0.483-0.798-0.812
		c-0.366-0.535-0.559-1.142-0.559-1.755c0-0.253,0.03-0.504,0.091-0.746c0.346-1.404,1.593-2.384,3.031-2.384
		c0.252,0,0.503,0.031,0.747,0.091c1.403,0.344,2.38,1.589,2.38,3.03c0,0.253-0.03,0.508-0.091,0.756
		C18.721,12.096,17.474,13.074,16.031,13.074L16.031,13.074z"/>
</g>
</svg>
