<?xml version="1.0" encoding="utf-8"?>
<!-- Generator: Adobe Illustrator 15.0.2, SVG Export Plug-In . SVG Version: 6.00 Build 0)  -->
<!DOCTYPE svg PUBLIC "-//W3C//DTD SVG 1.1//EN" "http://www.w3.org/Graphics/SVG/1.1/DTD/svg11.dtd">
<svg version="1.1" id="Calque_1" xmlns="http://www.w3.org/2000/svg" xmlns:xlink="http://www.w3.org/1999/xlink" x="0px" y="0px"
	 width="175px" height="34px" viewBox="-35 0 175 34" enable-background="new -35 0 175 34" xml:space="preserve">
<g>
	<path fill="#D31147" d="M33,30c0,2.2-1.743,4-3.875,4H5.875C3.744,34,2,32.2,2,30V4c0-2.2,1.744-4,3.875-4h23.25
		C31.257,0,33,1.8,33,4V30z"/>
</g>
<g>
	<path fill="#F01B57" d="M68,30c0,2.2-1.743,4-3.875,4h-23.25C38.744,34,37,32.2,37,30V4c0-2.2,1.744-4,3.875-4h23.25
		C66.257,0,68,1.8,68,4V30z"/>
</g>
<g>
	<path fill="#F01B57" d="M103,30c0,2.2-1.743,4-3.875,4h-23.25C73.744,34,72,32.2,72,30V4c0-2.2,1.744-4,3.875-4h23.25
		C101.257,0,103,1.8,103,4V30z"/>
</g>
<g>
	<path fill="#2E2E2D" d="M27.768,16.985l-9.693-8.837c-0.146-0.133-0.354-0.166-0.572-0.141c-0.221-0.025-0.428,0.007-0.576,0.141
		l-9.691,8.837c-0.35,0.318-0.255,0.991,0.211,1.501c0.467,0.512,1.127,0.668,1.476,0.349l8.579-7.818l8.578,7.82
		c0.35,0.317,1.01,0.164,1.477-0.347C28.021,17.979,28.115,17.305,27.768,16.985z"/>
	<path fill="#2E2E2D" d="M17.846,12.323c-0.17-0.149-0.449-0.151-0.617-0.002l-6.459,5.614c-0.17,0.147-0.31,0.455-0.31,0.683v6.97
		c0,0.229,0.184,0.414,0.411,0.414h4.145c0.225,0,0.41-0.188,0.41-0.414v-5.37c0-0.229,0.184-0.412,0.41-0.412h3.322
		c0.229,0,0.414,0.185,0.414,0.412v5.37c0,0.229,0.184,0.414,0.41,0.414h4.102c0.227,0,0.41-0.188,0.41-0.414v-6.97
		c0-0.229-0.135-0.533-0.309-0.685L17.846,12.323z"/>
	<path fill="#2E2E2D" d="M24.188,12.922c0.166,0.152,0.305,0.092,0.305-0.133V9.548c0-0.226-0.186-0.41-0.41-0.41h-2.42
		c-0.229,0-0.414,0.185-0.414,0.41v0.287c0,0.226,0.135,0.535,0.309,0.687L24.188,12.922z"/>
</g>
<g>
	<path fill="#D31147" d="M-2,30c0,2.2-1.743,4-3.875,4h-23.25C-31.256,34-33,32.2-33,30V4c0-2.2,1.744-4,3.875-4h23.25
		C-3.743,0-2,1.8-2,4V30z"/>
</g>
<g>
	<path fill="#2E2E2D" d="M-7.232,16.985l-9.693-8.837c-0.146-0.133-0.354-0.166-0.572-0.141c-0.221-0.025-0.428,0.007-0.576,0.141
		l-9.691,8.837c-0.35,0.318-0.255,0.991,0.211,1.501c0.467,0.512,1.127,0.668,1.476,0.349l8.579-7.818l8.578,7.82
		c0.35,0.317,1.01,0.164,1.477-0.347C-6.979,17.979-6.885,17.305-7.232,16.985z"/>
	<path fill="#2E2E2D" d="M-17.154,12.323c-0.17-0.149-0.449-0.151-0.617-0.002l-6.459,5.614c-0.17,0.147-0.31,0.455-0.31,0.683v6.97
		c0,0.229,0.184,0.414,0.411,0.414h4.145c0.225,0,0.41-0.188,0.41-0.414v-5.37c0-0.229,0.184-0.412,0.41-0.412h3.322
		c0.229,0,0.414,0.185,0.414,0.412v5.37c0,0.229,0.184,0.414,0.41,0.414h4.102c0.227,0,0.41-0.188,0.41-0.414v-6.97
		c0-0.229-0.135-0.533-0.309-0.685L-17.154,12.323z"/>
	<path fill="#2E2E2D" d="M-10.812,12.922c0.166,0.152,0.305,0.092,0.305-0.133V9.548c0-0.226-0.186-0.41-0.41-0.41h-2.42
		c-0.229,0-0.414,0.185-0.414,0.41v0.287c0,0.226,0.135,0.535,0.309,0.687L-10.812,12.922z"/>
</g>
<g>
	<path fill="#0A7039" d="M62.768,16.985l-9.693-8.837c-0.146-0.133-0.354-0.166-0.572-0.141c-0.221-0.025-0.428,0.007-0.576,0.141
		l-9.691,8.837c-0.35,0.318-0.255,0.991,0.211,1.501c0.467,0.512,1.127,0.668,1.476,0.349l8.579-7.818l8.578,7.82
		c0.35,0.317,1.01,0.164,1.477-0.347C63.021,17.979,63.115,17.305,62.768,16.985z"/>
	<path fill="#0A7039" d="M52.846,12.323c-0.17-0.149-0.449-0.151-0.617-0.002l-6.459,5.614c-0.17,0.147-0.31,0.455-0.31,0.683v6.97
		c0,0.229,0.184,0.414,0.411,0.414h4.145c0.225,0,0.41-0.188,0.41-0.414v-5.37c0-0.229,0.184-0.412,0.41-0.412h3.322
		c0.229,0,0.414,0.185,0.414,0.412v5.37c0,0.229,0.184,0.414,0.41,0.414h4.102c0.227,0,0.41-0.188,0.41-0.414v-6.97
		c0-0.229-0.135-0.533-0.309-0.685L52.846,12.323z"/>
	<path fill="#0A7039" d="M59.188,12.922c0.166,0.152,0.305,0.092,0.305-0.133V9.548c0-0.226-0.186-0.41-0.41-0.41h-2.42
		c-0.229,0-0.414,0.185-0.414,0.41v0.287c0,0.226,0.135,0.535,0.309,0.687L59.188,12.922z"/>
</g>
<g>
	<path fill="#0A7039" d="M97.768,16.985l-9.692-8.837c-0.146-0.133-0.354-0.166-0.572-0.141c-0.221-0.025-0.428,0.007-0.575,0.141
		l-9.691,8.837c-0.35,0.318-0.256,0.991,0.211,1.501c0.467,0.512,1.127,0.668,1.477,0.349l8.578-7.818l8.578,7.82
		c0.35,0.317,1.01,0.164,1.477-0.347C98.021,17.979,98.115,17.305,97.768,16.985z"/>
	<path fill="#0A7039" d="M87.846,12.323c-0.17-0.149-0.449-0.151-0.617-0.002l-6.459,5.614c-0.17,0.147-0.311,0.455-0.311,0.683
		v6.97c0,0.229,0.186,0.414,0.412,0.414h4.145c0.226,0,0.41-0.188,0.41-0.414v-5.37c0-0.229,0.184-0.412,0.41-0.412h3.322
		c0.229,0,0.414,0.185,0.414,0.412v5.37c0,0.229,0.184,0.414,0.41,0.414h4.102c0.227,0,0.41-0.188,0.41-0.414v-6.97
		c0-0.229-0.135-0.533-0.309-0.685L87.846,12.323z"/>
	<path fill="#0A7039" d="M94.188,12.922c0.166,0.152,0.306,0.092,0.306-0.133V9.548c0-0.226-0.187-0.41-0.41-0.41h-2.42
		c-0.229,0-0.414,0.185-0.414,0.41v0.287c0,0.226,0.135,0.535,0.31,0.687L94.188,12.922z"/>
</g>
<g>
	<path fill="#F01B57" d="M138,30c0,2.2-1.743,4-3.875,4h-23.25c-2.131,0-3.875-1.8-3.875-4V4c0-2.2,1.744-4,3.875-4h23.25
		C136.257,0,138,1.8,138,4V30z"/>
</g>
<g>
	<path fill="#0A7039" d="M132.768,16.985l-9.692-8.837c-0.146-0.133-0.354-0.166-0.572-0.141c-0.221-0.025-0.428,0.007-0.575,0.141
		l-9.691,8.837c-0.35,0.318-0.256,0.991,0.211,1.501c0.467,0.512,1.127,0.668,1.477,0.349l8.578-7.818l8.578,7.82
		c0.35,0.317,1.01,0.164,1.477-0.347C133.021,17.979,133.115,17.305,132.768,16.985z"/>
	<path fill="#0A7039" d="M122.846,12.323c-0.17-0.149-0.449-0.151-0.617-0.002l-6.459,5.614c-0.17,0.147-0.311,0.455-0.311,0.683
		v6.97c0,0.229,0.186,0.414,0.412,0.414h4.145c0.226,0,0.41-0.188,0.41-0.414v-5.37c0-0.229,0.184-0.412,0.41-0.412h3.322
		c0.229,0,0.414,0.185,0.414,0.412v5.37c0,0.229,0.184,0.414,0.41,0.414h4.102c0.227,0,0.41-0.188,0.41-0.414v-6.97
		c0-0.229-0.135-0.533-0.309-0.685L122.846,12.323z"/>
	<path fill="#0A7039" d="M129.188,12.922c0.166,0.152,0.306,0.092,0.306-0.133V9.548c0-0.226-0.187-0.41-0.41-0.41h-2.42
		c-0.229,0-0.414,0.185-0.414,0.41v0.287c0,0.226,0.135,0.535,0.31,0.687L129.188,12.922z"/>
</g>
</svg>
