<?xml version="1.0" encoding="utf-8"?>
<!-- Generator: Adobe Illustrator 15.0.0, SVG Export Plug-In . SVG Version: 6.00 Build 0)  -->
<!DOCTYPE svg PUBLIC "-//W3C//DTD SVG 1.1//EN" "http://www.w3.org/Graphics/SVG/1.1/DTD/svg11.dtd">
<svg version="1.1" id="Calque_1" xmlns="http://www.w3.org/2000/svg" xmlns:xlink="http://www.w3.org/1999/xlink" x="0px" y="0px"
	 width="80px" height="24px" viewBox="0 0 80 24" enable-background="new 0 0 80 24" xml:space="preserve">
<g>
	<path fill="#808090" d="M6.306,20.493c-0.29,0-0.538-0.131-0.683-0.359c-0.13-0.207-0.159-0.469-0.083-0.739l2.254-8.095
		c0.033-0.2,0.122-0.377,0.26-0.514l7.004-7.004c0.176-0.176,0.421-0.273,0.69-0.273c0.363,0,0.742,0.171,1.041,0.47l5.239,5.24
		c0.299,0.298,0.47,0.677,0.471,1.039c0,0.27-0.098,0.517-0.275,0.694l-7.004,7.003c-0.122,0.12-0.269,0.201-0.438,0.244
		c-0.035,0.014-0.073,0.026-0.113,0.038l-8.077,2.216C6.479,20.481,6.39,20.493,6.306,20.493z M9.244,18.229l3.704-1.018
		l-4.148-4.147l-1.068,3.837L9.244,18.229z"/>
	<path fill="#EEEBE8" d="M15.749,4.008c0.219,0,0.477,0.113,0.688,0.324l5.239,5.24c0.338,0.337,0.426,0.795,0.195,1.026
		l-7.004,7.003c-0.064,0.063-0.145,0.102-0.236,0.119c-0.03,0.014-0.063,0.025-0.1,0.036l-8.07,2.214
		c-0.055,0.014-0.107,0.022-0.154,0.022c-0.118,0-0.209-0.046-0.26-0.127c-0.051-0.081-0.063-0.197-0.024-0.337l2.241-8.054
		c0.006-0.021,0.013-0.04,0.02-0.059c0.011-0.108,0.052-0.204,0.124-0.276l7.005-7.005C15.498,4.049,15.616,4.008,15.749,4.008
		 M9.116,18.783l4.798-1.318c-0.024-0.018-0.047-0.041-0.069-0.063l-5.24-5.239c-0.019-0.02-0.039-0.04-0.057-0.061L7.165,17.07
		L9.116,18.783 M15.749,3.008c-0.402,0-0.773,0.149-1.043,0.42L7.7,10.433c-0.202,0.201-0.337,0.457-0.392,0.745
		c-0.002,0.009-0.005,0.019-0.008,0.028l-2.241,8.055c-0.114,0.407-0.064,0.811,0.14,1.137c0.237,0.374,0.65,0.596,1.108,0.596
		c0.125,0,0.253-0.017,0.394-0.052l8.094-2.22c0.052-0.016,0.098-0.03,0.14-0.046c0.242-0.066,0.459-0.189,0.633-0.361l7.009-7.009
		c0.272-0.272,0.422-0.645,0.422-1.048c0-0.494-0.226-1.002-0.618-1.393l-5.238-5.239C16.751,3.233,16.243,3.008,15.749,3.008
		L15.749,3.008z M8.297,16.733l0.754-2.711l2.935,2.936l-2.615,0.718L8.297,16.733L8.297,16.733z"/>
</g>
</svg>
