<?xml version="1.0" encoding="utf-8"?>
<!-- Generator: Adobe Illustrator 15.0.2, SVG Export Plug-In . SVG Version: 6.00 Build 0)  -->
<!DOCTYPE svg PUBLIC "-//W3C//DTD SVG 1.1//EN" "http://www.w3.org/Graphics/SVG/1.1/DTD/svg11.dtd">
<svg version="1.1" id="Calque_1" xmlns="http://www.w3.org/2000/svg" xmlns:xlink="http://www.w3.org/1999/xlink" x="0px" y="0px"
	 width="175px" height="34px" viewBox="0 0 175 34" enable-background="new 0 0 175 34" xml:space="preserve">
<g>
	<path fill="#D31147" d="M68,30c0,2.2-1.743,4-3.875,4h-23.25C38.744,34,37,32.2,37,30V4c0-2.2,1.744-4,3.875-4h23.25
		C66.257,0,68,1.8,68,4V30z"/>
</g>
<g>
	<path fill="#F01B57" d="M103,30c0,2.2-1.743,4-3.875,4h-23.25C73.744,34,72,32.2,72,30V4c0-2.2,1.744-4,3.875-4h23.25
		C101.257,0,103,1.8,103,4V30z"/>
</g>
<g>
	<path fill="#F01B57" d="M138,30c0,2.2-1.743,4-3.875,4h-23.25c-2.131,0-3.875-1.8-3.875-4V4c0-2.2,1.744-4,3.875-4h23.25
		C136.257,0,138,1.8,138,4V30z"/>
</g>
<g>
	<path fill="#2E2E2D" d="M42.659,9l9.005,9.008c0.217,0.217,0.502,0.334,0.813,0.334c0.313,0,0.598-0.117,0.813-0.334L62.295,9
		H42.659z"/>
	<g>
		<path fill="#2E2E2D" d="M55.922,17.02l-1.793,1.792c-0.443,0.442-1.029,0.664-1.615,0.664s-1.168-0.222-1.614-0.664l-1.83-1.833
			l-7.54,7.542c-0.05,0.054-0.099,0.093-0.148,0.134C41.588,24.867,41.878,25,42.2,25h20.554c0.322,0,0.611-0.135,0.818-0.346
			c-0.051-0.041-0.098-0.082-0.147-0.133L55.922,17.02z"/>
	</g>
	<g>
		<path fill="#2E2E2D" d="M41.567,9.479c-0.057-0.058-0.097-0.116-0.145-0.17c-0.227,0.21-0.371,0.507-0.371,0.839v13.243
			l7.215-7.213L41.567,9.479z"/>
		<path fill="#2E2E2D" d="M63.461,9.479l-6.736,6.735l7.178,7.177V10.147c0-0.312-0.128-0.594-0.33-0.8
			C63.533,9.39,63.506,9.434,63.461,9.479z"/>
	</g>
</g>
<g>
	<path fill="#D31147" d="M33,30c0,2.2-1.743,4-3.875,4H5.875C3.744,34,2,32.2,2,30V4c0-2.2,1.744-4,3.875-4h23.25
		C31.257,0,33,1.8,33,4V30z"/>
</g>
<g>
	<path fill="#2E2E2D" d="M7.659,9l9.005,9.008c0.217,0.217,0.502,0.334,0.813,0.334c0.313,0,0.598-0.117,0.813-0.334L27.295,9H7.659
		z"/>
	<g>
		<path fill="#2E2E2D" d="M20.922,17.02l-1.793,1.792c-0.443,0.442-1.029,0.664-1.615,0.664s-1.168-0.222-1.614-0.664l-1.83-1.833
			l-7.54,7.542c-0.05,0.054-0.099,0.093-0.148,0.134C6.588,24.867,6.878,25,7.2,25h20.554c0.322,0,0.611-0.135,0.818-0.346
			c-0.051-0.041-0.098-0.082-0.147-0.133L20.922,17.02z"/>
	</g>
	<g>
		<path fill="#2E2E2D" d="M6.567,9.479C6.51,9.421,6.47,9.363,6.422,9.309c-0.227,0.21-0.371,0.507-0.371,0.839v13.243l7.215-7.213
			L6.567,9.479z"/>
		<path fill="#2E2E2D" d="M28.461,9.479l-6.736,6.735l7.178,7.177V10.147c0-0.312-0.128-0.594-0.33-0.8
			C28.533,9.39,28.506,9.434,28.461,9.479z"/>
	</g>
</g>
<g>
	<path fill="#0A7039" d="M77.659,9l9.005,9.008c0.217,0.217,0.502,0.334,0.813,0.334c0.313,0,0.598-0.117,0.813-0.334L97.295,9
		H77.659z"/>
	<g>
		<path fill="#0A7039" d="M90.922,17.02l-1.793,1.792c-0.443,0.442-1.029,0.664-1.615,0.664c-0.586,0-1.168-0.222-1.614-0.664
			l-1.83-1.833l-7.54,7.542c-0.05,0.054-0.099,0.093-0.148,0.134C76.588,24.867,76.878,25,77.2,25h20.554
			c0.322,0,0.611-0.135,0.818-0.346c-0.051-0.041-0.098-0.082-0.147-0.133L90.922,17.02z"/>
	</g>
	<g>
		<path fill="#0A7039" d="M76.567,9.479c-0.057-0.058-0.097-0.116-0.145-0.17c-0.227,0.21-0.371,0.507-0.371,0.839v13.243
			l7.215-7.213L76.567,9.479z"/>
		<path fill="#0A7039" d="M98.461,9.479l-6.736,6.735l7.178,7.177V10.147c0-0.312-0.127-0.594-0.33-0.8
			C98.533,9.39,98.506,9.434,98.461,9.479z"/>
	</g>
</g>
<g>
	<path fill="#0A7039" d="M112.658,9l9.006,9.008c0.217,0.217,0.502,0.334,0.813,0.334c0.313,0,0.6-0.117,0.813-0.334L132.295,9
		H112.658z"/>
	<g>
		<path fill="#0A7039" d="M125.922,17.02l-1.793,1.792c-0.443,0.442-1.029,0.664-1.615,0.664s-1.168-0.222-1.613-0.664l-1.83-1.833
			l-7.541,7.542c-0.049,0.054-0.098,0.093-0.146,0.134c0.205,0.212,0.496,0.345,0.816,0.345h20.555c0.322,0,0.611-0.135,0.818-0.346
			c-0.051-0.041-0.098-0.082-0.147-0.133L125.922,17.02z"/>
	</g>
	<g>
		<path fill="#0A7039" d="M111.566,9.479c-0.058-0.058-0.096-0.116-0.146-0.17c-0.229,0.21-0.37,0.507-0.37,0.839v13.243
			l7.216-7.213L111.566,9.479z"/>
		<path fill="#0A7039" d="M133.461,9.479l-6.736,6.735l7.178,7.177V10.147c0-0.312-0.127-0.594-0.33-0.8
			C133.533,9.39,133.506,9.434,133.461,9.479z"/>
	</g>
</g>
<g>
	<path fill="#F01B57" d="M173,30c0,2.2-1.743,4-3.875,4h-23.25c-2.131,0-3.875-1.8-3.875-4V4c0-2.2,1.744-4,3.875-4h23.25
		C171.257,0,173,1.8,173,4V30z"/>
</g>
<g>
	<path fill="#0A7039" d="M147.658,9l9.006,9.008c0.217,0.217,0.502,0.334,0.813,0.334c0.313,0,0.6-0.117,0.813-0.334L167.295,9
		H147.658z"/>
	<g>
		<path fill="#0A7039" d="M160.922,17.02l-1.793,1.792c-0.443,0.442-1.029,0.664-1.615,0.664s-1.168-0.222-1.613-0.664l-1.83-1.833
			l-7.541,7.542c-0.049,0.054-0.098,0.093-0.146,0.134C146.589,24.867,146.88,25,147.2,25h20.555c0.322,0,0.611-0.135,0.817-0.346
			c-0.051-0.041-0.098-0.082-0.146-0.133L160.922,17.02z"/>
	</g>
	<g>
		<path fill="#0A7039" d="M146.566,9.479c-0.058-0.058-0.096-0.116-0.146-0.17c-0.229,0.21-0.37,0.507-0.37,0.839v13.243
			l7.216-7.213L146.566,9.479z"/>
		<path fill="#0A7039" d="M168.461,9.479l-6.736,6.735l7.178,7.177V10.147c0-0.312-0.127-0.594-0.33-0.8
			C168.533,9.39,168.506,9.434,168.461,9.479z"/>
	</g>
</g>
</svg>
