<?xml version="1.0" encoding="utf-8"?>
<!-- Generator: Adobe Illustrator 15.0.2, SVG Export Plug-In . SVG Version: 6.00 Build 0)  -->
<!DOCTYPE svg PUBLIC "-//W3C//DTD SVG 1.1//EN" "http://www.w3.org/Graphics/SVG/1.1/DTD/svg11.dtd">
<svg version="1.1" id="Calque_1" xmlns="http://www.w3.org/2000/svg" xmlns:xlink="http://www.w3.org/1999/xlink" x="0px" y="0px"
	 width="80px" height="24px" viewBox="0 0 80 24" enable-background="new 0 0 80 24" xml:space="preserve">
<g>
	<path fill="#808090" d="M21.27,13.362l-2.603-2.604c-0.489-0.487-1.14-0.757-1.833-0.757c-0.36,0-0.707,0.076-1.026,0.213
		c0.393-0.942,0.21-2.069-0.556-2.835l-2.603-2.604c-0.488-0.489-1.139-0.758-1.833-0.758c-0.693,0-1.344,0.269-1.831,0.758
		L6.786,6.971c-1.011,1.012-1.011,2.656,0,3.666l2.603,2.604c0.488,0.488,1.141,0.757,1.833,0.757c0.36,0,0.706-0.075,1.025-0.212
		c-0.394,0.941-0.211,2.069,0.555,2.836l2.603,2.603c0.488,0.489,1.139,0.759,1.834,0.759c0.693,0,1.344-0.27,1.832-0.759
		l2.198-2.196C22.28,16.018,22.28,14.373,21.27,13.362z M11.222,11.937c-0.082,0-0.242-0.02-0.376-0.154L8.244,9.182
		c-0.205-0.205-0.205-0.551,0-0.755l2.197-2.195c0.134-0.133,0.293-0.155,0.375-0.155c0.084,0,0.244,0.021,0.377,0.155l2.603,2.603
		C14,9.037,14,9.382,13.796,9.587l-0.348,0.348L12.99,9.478c-0.337-0.337-0.89-0.337-1.228,0L11.5,9.741
		c-0.338,0.337-0.338,0.89,0,1.228l0.457,0.457l-0.357,0.357C11.465,11.917,11.305,11.937,11.222,11.937z M19.813,15.572
		l-2.198,2.194c-0.134,0.136-0.294,0.155-0.375,0.155c-0.086,0-0.244-0.02-0.378-0.155l-2.604-2.601
		c-0.204-0.205-0.204-0.55,0-0.754L14.6,14.07l0.593,0.593c0.338,0.34,0.89,0.34,1.228,0l0.263-0.265
		c0.338-0.338,0.338-0.89,0-1.229l-0.591-0.59l0.363-0.363c0.134-0.136,0.293-0.155,0.375-0.155s0.244,0.019,0.377,0.153
		l2.604,2.602C20.016,15.021,20.016,15.366,19.813,15.572z"/>
	<path fill="#EEEBE8" d="M17.239,20.483c-0.828,0-1.605-0.321-2.188-0.905l-2.603-2.603c-0.669-0.67-0.982-1.587-0.889-2.496
		c-0.929,0.106-1.863-0.222-2.525-0.885l-2.603-2.604c-1.205-1.205-1.205-3.166,0-4.373L8.63,4.422c1.162-1.166,3.208-1.166,4.372,0
		l2.603,2.603c0.669,0.669,0.982,1.586,0.889,2.495c0.928-0.101,1.861,0.222,2.525,0.884l2.604,2.604
		c1.205,1.206,1.205,3.167,0,4.373l-2.198,2.196C18.842,20.162,18.066,20.483,17.239,20.483z M13.185,12.841l-0.476,1.139
		c-0.33,0.788-0.155,1.687,0.447,2.289l2.603,2.603c0.787,0.788,2.17,0.79,2.958,0l2.199-2.196c0.815-0.815,0.815-2.144,0-2.959
		l-2.603-2.604c-0.595-0.593-1.517-0.777-2.309-0.438l-1.134,0.487l0.476-1.139c0.329-0.789,0.153-1.688-0.448-2.29l-2.603-2.604
		c-0.786-0.788-2.171-0.79-2.957,0L7.139,7.325c-0.815,0.816-0.815,2.144,0,2.959l2.603,2.604c0.593,0.593,1.516,0.779,2.309,0.438
		L13.185,12.841z M17.239,18.422c-0.279,0-0.54-0.107-0.733-0.304l-2.602-2.599c-0.401-0.404-0.401-1.059,0-1.461l0.696-0.695
		l0.946,0.946c0.14,0.141,0.382,0.14,0.52,0.001l0.263-0.265c0.145-0.145,0.145-0.379,0-0.524l-0.944-0.942l0.717-0.717
		c0.19-0.193,0.45-0.301,0.729-0.301c0.162,0,0.471,0.039,0.731,0.3l2.603,2.601c0.4,0.403,0.4,1.058,0.002,1.461l-2.2,2.196
		C17.709,18.383,17.4,18.422,17.239,18.422z M14.979,15.14l2.236,2.273l2.244-2.194l-2.604-2.65L16.821,12.6l0.216,0.216
		c0.534,0.536,0.534,1.404,0,1.937l-0.262,0.264C16.304,15.49,15.501,15.539,14.979,15.14z M11.222,12.437
		c-0.161,0-0.469-0.039-0.73-0.301L7.89,9.535c-0.193-0.194-0.3-0.454-0.3-0.731c0-0.278,0.106-0.538,0.3-0.731l2.196-2.195
		c0.193-0.192,0.458-0.301,0.729-0.301c0.16,0,0.468,0.039,0.73,0.301l2.603,2.603c0.193,0.191,0.299,0.451,0.299,0.729
		c0,0.277-0.106,0.537-0.298,0.729l-0.703,0.703l-0.811-0.811c-0.138-0.138-0.383-0.138-0.521,0l-0.262,0.262
		c-0.069,0.069-0.107,0.162-0.107,0.26c0,0.099,0.038,0.191,0.107,0.261l0.81,0.811l-0.711,0.711
		C11.76,12.33,11.5,12.437,11.222,12.437z M10.816,6.077l0,0.5c-0.01,0-0.018,0.003-0.024,0.01L8.597,8.78l2.602,2.649l0.029-0.026
		l-0.082-0.082c-0.258-0.258-0.4-0.602-0.4-0.969c0-0.366,0.143-0.709,0.4-0.966l0.261-0.262c0.488-0.488,1.327-0.519,1.849-0.081
		l-2.417-2.459L10.816,6.077z"/>
</g>
</svg>
