<?xml version="1.0" encoding="utf-8"?>
<!-- Generator: Adobe Illustrator 15.0.2, SVG Export Plug-In . SVG Version: 6.00 Build 0)  -->
<!DOCTYPE svg PUBLIC "-//W3C//DTD SVG 1.1//EN" "http://www.w3.org/Graphics/SVG/1.1/DTD/svg11.dtd">
<svg version="1.1" id="Calque_1" xmlns="http://www.w3.org/2000/svg" xmlns:xlink="http://www.w3.org/1999/xlink" x="0px" y="0px"
	 width="34px" height="34px" viewBox="0 0 34 34" enable-background="new 0 0 34 34" xml:space="preserve">
<g>
	<path fill="#F01B57" d="M32.5,30c0,2.2-1.743,4-3.875,4H5.375C3.244,34,1.5,32.2,1.5,30V4c0-2.2,1.744-4,3.875-4h23.25
		C30.757,0,32.5,1.8,32.5,4V30z"/>
</g>
<g>
	<path fill="#0A7039" d="M27.268,16.985l-9.693-8.837c-0.147-0.133-0.354-0.166-0.573-0.141c-0.22-0.025-0.427,0.007-0.575,0.141
		l-9.692,8.837c-0.35,0.319-0.255,0.992,0.211,1.502c0.467,0.511,1.127,0.668,1.476,0.348L17,11.017l8.579,7.82
		c0.349,0.318,1.01,0.164,1.476-0.347C27.521,17.978,27.615,17.305,27.268,16.985z"/>
	<path fill="#0A7039" d="M17.345,12.323c-0.169-0.149-0.448-0.151-0.617-0.002l-6.458,5.615c-0.17,0.147-0.31,0.454-0.31,0.681v6.97
		c0,0.229,0.184,0.414,0.411,0.414h4.144c0.226,0,0.411-0.188,0.411-0.414v-5.37c0-0.229,0.184-0.413,0.41-0.413h3.322
		c0.229,0,0.414,0.185,0.414,0.413v5.37c0,0.229,0.184,0.414,0.41,0.414h4.102c0.227,0,0.41-0.188,0.41-0.414v-6.97
		c0-0.229-0.135-0.533-0.309-0.683L17.345,12.323z"/>
	<path fill="#0A7039" d="M23.688,12.922c0.166,0.152,0.304,0.092,0.304-0.133V9.548c0-0.226-0.185-0.41-0.41-0.41h-2.419
		c-0.229,0-0.414,0.184-0.414,0.41v0.287c0,0.226,0.134,0.535,0.307,0.687L23.688,12.922z"/>
</g>
</svg>
