<?xml version="1.0" encoding="utf-8"?>
<!-- Generator: Adobe Illustrator 15.0.0, SVG Export Plug-In . SVG Version: 6.00 Build 0)  -->
<!DOCTYPE svg PUBLIC "-//W3C//DTD SVG 1.1//EN" "http://www.w3.org/Graphics/SVG/1.1/DTD/svg11.dtd">
<svg version="1.1" id="Calque_1" xmlns="http://www.w3.org/2000/svg" xmlns:xlink="http://www.w3.org/1999/xlink" x="0px" y="0px"
	 width="80px" height="24px" viewBox="0 0 80 24" enable-background="new 0 0 80 24" xml:space="preserve">
<g>
	<path fill="#808090" d="M12.508,20.499c-0.854,0-1.548-0.694-1.548-1.548v-3.91H7.048c-0.854,0-1.548-0.694-1.548-1.548V10.51
		c0-0.854,0.694-1.548,1.548-1.548h3.912V5.049c0-0.854,0.694-1.548,1.548-1.548h2.984c0.854,0,1.548,0.694,1.548,1.548v3.913h3.912
		c0.854,0,1.548,0.694,1.548,1.548v2.983c0,0.854-0.694,1.548-1.548,1.548H17.04v3.91c0,0.854-0.694,1.548-1.548,1.548H12.508z"/>
	<path fill="#EEEBE8" d="M15.492,4.001c0.571,0,1.048,0.477,1.048,1.048c0,1.471,0,2.942,0,4.413c1.471,0,2.941,0,4.412,0
		C21.523,9.462,22,9.939,22,10.51c0,0.994,0,1.989,0,2.983c0,0.571-0.477,1.048-1.048,1.048c-1.471,0-2.941,0-4.412,0
		c0,1.471,0,2.939,0,4.41c0,0.57-0.477,1.048-1.048,1.048c-0.995,0-1.989,0-2.984,0c-0.571,0-1.048-0.478-1.048-1.048
		c0-1.471,0-2.939,0-4.41c-1.471,0-2.941,0-4.412,0C6.477,14.541,6,14.064,6,13.493c0-0.994,0-1.989,0-2.983
		c0-0.571,0.477-1.048,1.048-1.048c1.471,0,2.941,0,4.412,0c0-1.471,0-2.942,0-4.413c0-0.571,0.477-1.048,1.048-1.048
		C13.503,4.001,14.497,4.001,15.492,4.001 M15.492,3.001h-2.984c-1.129,0-2.048,0.918-2.048,2.048v3.413H7.048
		C5.918,8.462,5,9.381,5,10.51v2.983c0,1.129,0.918,2.048,2.048,2.048h3.412v3.41c0,1.129,0.918,2.048,2.048,2.048h2.984
		c1.129,0,2.048-0.919,2.048-2.048v-3.41h3.412c1.129,0,2.048-0.919,2.048-2.048V10.51c0-1.129-0.918-2.048-2.048-2.048H17.54V5.049
		C17.54,3.919,16.622,3.001,15.492,3.001L15.492,3.001z"/>
</g>
</svg>
