<?xml version="1.0" encoding="utf-8"?>
<!-- Generator: Adobe Illustrator 15.0.2, SVG Export Plug-In . SVG Version: 6.00 Build 0)  -->
<!DOCTYPE svg PUBLIC "-//W3C//DTD SVG 1.1//EN" "http://www.w3.org/Graphics/SVG/1.1/DTD/svg11.dtd">
<svg version="1.1" id="Calque_1" xmlns="http://www.w3.org/2000/svg" xmlns:xlink="http://www.w3.org/1999/xlink" x="0px" y="0px"
	 width="80px" height="24px" viewBox="0 0 80 24" enable-background="new 0 0 80 24" xml:space="preserve">
<g>
	<path fill="#808090" d="M16.461,4.854c-1.524,0-2.827,2.434-3.543,3.183c-0.715-0.751-2.015-3.183-3.539-3.183
		c-2.625,0-4.459,1.83-4.459,4.451c0,2.888,2.276,4.754,4.48,6.559c1.039,0.853,2.942,2.712,2.942,2.712l0.556,0.571h0.042
		l0.555-0.571c0,0,1.901-1.859,2.943-2.711c2.204-1.806,4.481-3.671,4.481-6.56C20.921,6.685,19.088,4.854,16.461,4.854z"/>
	<path fill="#EEEBE8" d="M13.152,19.646h-0.464l-0.704-0.723c-0.01-0.01-1.891-1.845-2.901-2.674
		C6.791,14.373,4.42,12.431,4.42,9.305c0-2.915,2.04-4.951,4.959-4.951c1.403,0,2.508,1.498,3.315,2.591
		c0.078,0.106,0.153,0.208,0.225,0.303c0.072-0.096,0.147-0.198,0.227-0.305c0.808-1.093,1.914-2.589,3.315-2.589
		c1.404,0,2.671,0.494,3.568,1.39c0.897,0.896,1.391,2.161,1.39,3.562c0,3.125-2.371,5.067-4.665,6.946
		c-1.013,0.828-2.891,2.663-2.91,2.682L13.152,19.646z M9.379,5.354c-2.331,0-3.959,1.625-3.959,3.951
		c0,2.653,2.185,4.441,4.297,6.172c1.044,0.856,2.896,2.664,2.975,2.741l0.227,0.233l0.218-0.225
		c0.087-0.085,1.938-1.894,2.985-2.749c2.113-1.731,4.298-3.521,4.298-6.173c0-1.15-0.378-2.137-1.097-2.854
		c-0.719-0.718-1.708-1.097-2.862-1.097c-0.897,0-1.869,1.314-2.512,2.183c-0.253,0.343-0.472,0.638-0.67,0.845l-0.362,0.379
		l-0.361-0.379c-0.197-0.207-0.415-0.502-0.667-0.843C11.248,6.668,10.277,5.354,9.379,5.354z"/>
</g>
</svg>
