<?xml version="1.0" encoding="utf-8"?>
<!-- Generator: Adobe Illustrator 15.0.0, SVG Export Plug-In . SVG Version: 6.00 Build 0)  -->
<!DOCTYPE svg PUBLIC "-//W3C//DTD SVG 1.1//EN" "http://www.w3.org/Graphics/SVG/1.1/DTD/svg11.dtd">
<svg version="1.1" id="Calque_1" xmlns="http://www.w3.org/2000/svg" xmlns:xlink="http://www.w3.org/1999/xlink" x="0px" y="0px"
	 width="80px" height="24px" viewBox="0 0 80 24" enable-background="new 0 0 80 24" xml:space="preserve">
<g>
	<polygon fill="#808090" points="5.293,17.456 10.785,11.984 5.368,6.546 8.598,3.331 14.014,8.769 19.491,3.314 22.707,6.545 
		17.231,12 22.611,17.399 19.381,20.615 14.002,15.215 8.509,20.686 	"/>
	<path fill="#EEEBE8" d="M19.489,4.021L22,6.544l-5.476,5.454l5.38,5.4l-2.521,2.51l-5.379-5.4l-5.493,5.471L6,17.457l5.492-5.471
		L6.075,6.548l2.521-2.51l5.416,5.438L19.489,4.021 M19.492,2.606l-0.708,0.706l-4.769,4.75l-4.71-4.729L8.599,2.624L7.891,3.33
		L5.37,5.839L4.661,6.545l0.706,0.708l4.711,4.729l-4.784,4.766l-0.708,0.705l0.706,0.709l2.511,2.521l0.706,0.708l0.708-0.705
		l4.785-4.766l4.673,4.692l0.706,0.708l0.708-0.705l2.521-2.51l0.709-0.706l-0.706-0.709l-4.674-4.691l4.768-4.749l0.708-0.706
		l-0.705-0.708l-2.511-2.523L19.492,2.606L19.492,2.606z"/>
</g>
</svg>
