<?xml version="1.0" encoding="utf-8"?>
<!-- Generator: Adobe Illustrator 15.0.2, SVG Export Plug-In . SVG Version: 6.00 Build 0)  -->
<!DOCTYPE svg PUBLIC "-//W3C//DTD SVG 1.1//EN" "http://www.w3.org/Graphics/SVG/1.1/DTD/svg11.dtd">
<svg version="1.1" id="Calque_1" xmlns="http://www.w3.org/2000/svg" xmlns:xlink="http://www.w3.org/1999/xlink" x="0px" y="0px"
	 width="80px" height="24px" viewBox="0 0 80 24" enable-background="new 0 0 80 24" xml:space="preserve">
<g>
	<path fill="#808090" d="M9.439,20.5c-0.585,0-1.386,0-2.063-1.355l-1.651-5.741C5.08,13.2,4.627,12.609,4.627,11.911v-0.539
		c0-0.871,0.708-1.579,1.579-1.579h1.611l4.453-5.014C12.507,4.017,13.201,3.5,14.023,3.5c0.813,0,1.52,0.528,1.754,1.282
		l4.454,5.011h2.152c0.87,0,1.577,0.708,1.577,1.579v0.539c0,0.698-0.452,1.288-1.096,1.492l-1.62,5.655
		C20.533,20.5,19.732,20.5,19.147,20.5H9.439z M19.078,13.488c-0.365,0-0.751,0.29-0.825,0.621l-0.759,3.354
		c-0.018,0.08-0.024,0.196,0.05,0.289c0.066,0.082,0.18,0.127,0.321,0.127h0.271c0.364,0,0.75-0.297,0.826-0.636l0.759-3.354
		c0.018-0.077,0.024-0.188-0.046-0.276c-0.064-0.08-0.18-0.125-0.324-0.125H19.078z M14.294,13.488c-0.319,0-0.58,0.261-0.58,0.581
		v3.233c0,0.323,0.255,0.577,0.58,0.577c0.324,0,0.577-0.254,0.577-0.577v-3.234C14.871,13.743,14.618,13.488,14.294,13.488z
		 M9.239,13.488c-0.144,0-0.264,0.047-0.328,0.127c-0.069,0.087-0.063,0.197-0.045,0.274l0.758,3.354
		c0.076,0.34,0.462,0.637,0.827,0.637h0.272c0.141,0,0.254-0.045,0.32-0.127c0.059-0.073,0.076-0.174,0.05-0.29l-0.758-3.353
		c-0.074-0.332-0.46-0.622-0.826-0.622H9.239z M16.733,9.793l-2.345-2.639c-0.125,0.029-0.245,0.042-0.367,0.042
		c-0.12,0-0.24-0.014-0.364-0.042l-2.347,2.639H16.733z"/>
	<path fill="#EEEBE8" d="M14.023,4c0.658,0,1.196,0.455,1.313,1.077h0.034l4.315,4.855h-2.159l-2.98-3.354
		c-0.163,0.068-0.337,0.119-0.524,0.119c-0.184,0-0.36-0.051-0.521-0.119l-2.983,3.354H8.362l4.313-4.856h0.035
		C12.831,4.455,13.368,4,14.023,4 M22.383,10.293c0.598,0,1.077,0.481,1.077,1.079v0.539c0,0.57-0.437,1.017-0.993,1.063
		l-1.703,5.946C20.224,20,19.687,20,19.147,20H9.439c-0.537,0-1.077,0-1.616-1.079l-1.701-5.946
		c-0.558-0.047-0.995-0.495-0.995-1.063v-0.539c0-0.598,0.481-1.079,1.079-1.079H22.383 M17.864,18.38h0.271
		c0.597,0,1.187-0.463,1.313-1.026L20.207,14c0.126-0.561-0.26-1.012-0.858-1.012h-0.271c-0.598,0-1.187,0.451-1.313,1.012
		l-0.759,3.354C16.88,17.917,17.266,18.38,17.864,18.38 M14.294,18.38c0.598,0,1.077-0.478,1.077-1.077v-3.234
		c0-0.598-0.479-1.08-1.077-1.08c-0.597,0-1.079,0.482-1.08,1.08v3.234C13.214,17.9,13.696,18.38,14.294,18.38 M10.45,18.38h0.272
		c0.597,0,0.984-0.463,0.858-1.026L10.822,14c-0.126-0.561-0.716-1.012-1.314-1.012H9.239c-0.598,0-0.988,0.451-0.861,1.012
		l0.758,3.354C9.262,17.917,9.852,18.38,10.45,18.38 M14.023,3c-0.988,0-1.857,0.621-2.192,1.521L7.614,9.268L7.592,9.293H6.206
		c-1.146,0-2.079,0.933-2.079,2.079v0.539c0,0.824,0.477,1.535,1.185,1.867l1.55,5.418l0.025,0.089l0.042,0.082
		C7.68,20.874,8.619,21,9.439,21h9.708c0.82,0,1.758-0.126,2.511-1.632l0.042-0.083l0.025-0.089l1.551-5.419
		c0.708-0.332,1.183-1.042,1.183-1.866v-0.539c0-1.146-0.932-2.079-2.077-2.079h-1.928l-0.022-0.025l-4.215-4.742
		C15.888,3.623,15.017,3,14.023,3L14.023,3z M14.022,7.697c0.058,0,0.116-0.002,0.174-0.007l1.424,1.604h-3.195l1.426-1.604
		C13.908,7.694,13.965,7.697,14.022,7.697L14.022,7.697z M18.025,17.38l0.715-3.159c0.02-0.088,0.191-0.232,0.338-0.232h0.106
		l-0.712,3.145c-0.023,0.104-0.201,0.247-0.338,0.247H18.025L18.025,17.38z M14.294,17.38c-0.046,0-0.08-0.032-0.08-0.077v-3.234
		c0-0.045,0.035-0.08,0.08-0.08c0.045,0,0.077,0.033,0.077,0.08v3.234C14.371,17.35,14.341,17.38,14.294,17.38L14.294,17.38z
		 M9.4,13.989l0.107-0.001c0.147,0,0.319,0.145,0.338,0.231l0.714,3.16h-0.11c-0.146,0-0.318-0.153-0.339-0.245L9.4,13.989
		L9.4,13.989z"/>
</g>
</svg>
