<?xml version="1.0" encoding="utf-8"?>
<!-- Generator: Adobe Illustrator 15.0.2, SVG Export Plug-In . SVG Version: 6.00 Build 0)  -->
<!DOCTYPE svg PUBLIC "-//W3C//DTD SVG 1.1//EN" "http://www.w3.org/Graphics/SVG/1.1/DTD/svg11.dtd">
<svg version="1.1" id="Calque_1" xmlns="http://www.w3.org/2000/svg" xmlns:xlink="http://www.w3.org/1999/xlink" x="0px" y="0px"
	 width="80px" height="24px" viewBox="0 0 80 24" enable-background="new 0 0 80 24" xml:space="preserve">
<g>
	<path fill="#9595A4" d="M17.569,13.324c-0.963,0-1.829,0.405-2.441,1.053l-3.611-1.813c0.032-0.186,0.05-0.377,0.05-0.573
		c0-0.293-0.038-0.576-0.109-0.847l3.805-2.331c0.458,0.354,1.032,0.566,1.657,0.566c1.493,0,2.705-1.21,2.705-2.704
		c0-1.493-1.21-2.705-2.705-2.705c-1.496,0-2.704,1.21-2.704,2.705c0,0.172,0.018,0.339,0.047,0.504l-3.807,2.332
		C9.869,8.986,9.093,8.667,8.243,8.667c-1.836,0-3.324,1.488-3.324,3.324s1.488,3.324,3.324,3.324c0.951,0,1.807-0.399,2.413-1.04
		l3.611,1.817c-0.034,0.189-0.053,0.386-0.053,0.586c0,1.852,1.502,3.353,3.354,3.353c1.851,0,3.351-1.501,3.351-3.353
		C20.918,14.827,19.42,13.324,17.569,13.324z"/>
	<path fill="#EEEBE8" d="M17.568,20.53c-2.125,0-3.854-1.729-3.854-3.853c0-0.101,0.004-0.2,0.012-0.298l-2.98-1.5
		c-0.694,0.605-1.57,0.935-2.504,0.935c-2.109,0-3.824-1.715-3.824-3.824s1.715-3.824,3.824-3.824c0.814,0,1.601,0.259,2.253,0.735
		l3.229-1.979c-0.006-0.081-0.01-0.164-0.01-0.247c0-1.767,1.438-3.205,3.204-3.205c1.767,0,3.205,1.438,3.205,3.205
		c0,1.767-1.438,3.204-3.205,3.204c-0.598,0-1.17-0.162-1.673-0.47l-3.228,1.977c0.032,0.199,0.048,0.401,0.048,0.604
		c0,0.096-0.003,0.19-0.011,0.284l2.98,1.497c0.702-0.613,1.587-0.947,2.532-0.947c2.123,0,3.849,1.729,3.849,3.854
		C21.418,18.802,19.691,20.53,17.568,20.53z M10.548,13.66l4.276,2.152l-0.065,0.367c-0.029,0.161-0.045,0.328-0.045,0.498
		c0,1.573,1.28,2.853,2.854,2.853c1.572,0,2.851-1.279,2.851-2.853s-1.278-2.854-2.849-2.854c-0.793,0-1.531,0.318-2.078,0.896
		l-0.255,0.27l-4.275-2.146l0.063-0.366c0.027-0.158,0.042-0.321,0.042-0.487c0-0.245-0.031-0.487-0.093-0.718l-0.095-0.36
		l4.417-2.705l0.273,0.211c0.39,0.302,0.857,0.462,1.351,0.462c1.216,0,2.205-0.989,2.205-2.204c0-1.216-0.989-2.205-2.205-2.205
		c-1.215,0-2.204,0.989-2.204,2.205c0,0.142,0.015,0.279,0.04,0.415l0.061,0.336l-4.415,2.705l-0.277-0.248
		C9.605,9.421,8.938,9.167,8.243,9.167c-1.557,0-2.824,1.267-2.824,2.824s1.267,2.824,2.824,2.824c0.783,0,1.511-0.313,2.05-0.884
		L10.548,13.66z"/>
</g>
</svg>
