<?xml version="1.0" encoding="utf-8"?>
<!-- Generator: Adobe Illustrator 15.0.2, SVG Export Plug-In . SVG Version: 6.00 Build 0)  -->
<!DOCTYPE svg PUBLIC "-//W3C//DTD SVG 1.1//EN" "http://www.w3.org/Graphics/SVG/1.1/DTD/svg11.dtd">
<svg version="1.1" id="Calque_1" xmlns="http://www.w3.org/2000/svg" xmlns:xlink="http://www.w3.org/1999/xlink" x="0px" y="0px"
	 width="178px" height="24px" viewBox="1 0 178 24" enable-background="new 1 0 178 24" xml:space="preserve">
<rect x="1" fill="#614161" width="178" height="24"/>
<g>
	<path fill="#E5D7E5" d="M8.346,13.24c0.298,0.236,0.566,0.507,0.804,0.804C8.852,13.809,8.583,13.538,8.346,13.24z"/>
	<path fill="#E5D7E5" d="M15.136,14.773c-0.293-0.951,0.714-1.233,1.097-1.75c-0.025,0.096-0.129,0.113-0.146,0.217
		c-0.297,0.236-0.565,0.507-0.803,0.804C15.029,14.083,15.176,14.521,15.136,14.773z"/>
	<path fill="#E5D7E5" d="M15.282,14.046c0.238-0.299,0.507-0.565,0.804-0.806C15.849,13.538,15.583,13.809,15.282,14.046z"/>
	<path fill="#E5D7E5" d="M11.56,2.653c0.438,0,0.876,0,1.314,0c3.123,0.479,4.225,2.979,4.38,6.425
		c1.037,0.084,0.933,2.161-0.071,2.192c-0.066,0.834-0.537,1.266-0.95,1.751c-0.382,0.521-1.39,0.801-1.097,1.752
		c3.668,0.422,4.883,3.295,5.696,6.572c-5.744,0-11.488,0-17.232,0c0.678-2.813,1.856-5.63,4.453-6.354
		c0.386-0.108,0.886,0.005,1.24-0.366c-0.022-0.223,0.083-0.568-0.145-0.586c-0.237-0.295-0.506-0.566-0.804-0.805
		c-0.418-0.604-1.02-1.021-1.096-1.971C6.18,11.185,6.223,9.173,7.175,9C7.342,5.591,8.461,3.132,11.56,2.653z"/>
</g>
</svg>
