<?xml version="1.0" encoding="utf-8"?>
<!-- Generator: Adobe Illustrator 15.0.2, SVG Export Plug-In . SVG Version: 6.00 Build 0)  -->
<!DOCTYPE svg PUBLIC "-//W3C//DTD SVG 1.1//EN" "http://www.w3.org/Graphics/SVG/1.1/DTD/svg11.dtd">
<svg version="1.1" id="Calque_1" xmlns="http://www.w3.org/2000/svg" xmlns:xlink="http://www.w3.org/1999/xlink" x="0px" y="0px"
	 width="238px" height="24px" viewBox="1 0 238 24" enable-background="new 1 0 238 24" xml:space="preserve">
<rect x="1" fill="#7E607E" width="238" height="24"/>
<g>
	<path fill="#C2ABC2" d="M10.283,13.242c0.298,0.236,0.566,0.506,0.804,0.804C10.789,13.809,10.521,13.539,10.283,13.242z"/>
	<path fill="#C2ABC2" d="M17.074,14.775c-0.293-0.951,0.714-1.234,1.097-1.75c-0.025,0.096-0.129,0.113-0.146,0.217
		c-0.297,0.236-0.565,0.506-0.803,0.804C16.967,14.084,17.113,14.521,17.074,14.775z"/>
	<path fill="#C2ABC2" d="M17.22,14.047c0.238-0.299,0.507-0.566,0.804-0.807C17.787,13.539,17.52,13.809,17.22,14.047z"/>
	<path fill="#C2ABC2" d="M13.497,2.654c0.438,0,0.876,0,1.314,0c3.123,0.479,4.225,2.979,4.38,6.425
		c1.037,0.084,0.933,2.16-0.071,2.191c-0.066,0.835-0.537,1.267-0.95,1.751c-0.382,0.521-1.39,0.803-1.097,1.754
		c3.668,0.42,4.883,3.293,5.696,6.57c-5.744,0-11.488,0-17.232,0c0.678-2.813,1.856-5.625,4.453-6.354
		c0.386-0.109,0.886,0.002,1.24-0.367c-0.022-0.222,0.083-0.569-0.145-0.586c-0.237-0.295-0.506-0.567-0.804-0.804
		c-0.418-0.604-1.021-1.021-1.096-1.971c-1.068-0.08-1.025-2.091-0.073-2.266C9.279,5.593,10.398,3.134,13.497,2.654z"/>
</g>
</svg>
