<?xml version="1.0" encoding="utf-8"?>
<!-- Generator: Adobe Illustrator 15.0.2, SVG Export Plug-In . SVG Version: 6.00 Build 0)  -->
<!DOCTYPE svg PUBLIC "-//W3C//DTD SVG 1.1//EN" "http://www.w3.org/Graphics/SVG/1.1/DTD/svg11.dtd">
<svg version="1.1" id="Calque_1" xmlns="http://www.w3.org/2000/svg" xmlns:xlink="http://www.w3.org/1999/xlink" x="0px" y="0px"
	 width="280px" height="175px" viewBox="0 0 280 175" enable-background="new 0 0 280 175" xml:space="preserve">
<rect fill="#C8CFE1" width="280" height="175"/>
<g>
	<path fill="#C8CFE1" d="M103.437,119.213c3.385-0.946,7.763,0.044,10.901-3.121c-0.223-1.942,0.715-4.817-1.282-4.957
		c-0.144-0.18-0.291-0.356-0.437-0.533c-2.222-1.826-4.245-3.838-6.091-6.068c-0.177-0.146-0.353-0.291-0.532-0.432
		c-3.691-5.299-8.962-9.167-9.62-17.342c-9.363-0.673-9.003-18.375-0.65-19.764c1.475-30.266,11.288-51.822,38.498-56.061
		c3.869,0,7.695,0,11.548,0c27.418,4.158,37.105,26.11,38.487,56.431c9.082,0.743,8.174,18.969-0.651,19.228
		c-0.563,7.42-4.719,11.081-8.338,15.375c-0.104,0.148-0.215,0.292-0.331,0.435c0.116-0.138,0.227-0.278,0.331-0.421
		c-0.234,0.841-1.142,1.172-1.281,2.106c-0.121,0.094-0.237,0.193-0.356,0.288c-1.89,2.291-3.979,4.376-6.298,6.263
		c-0.132,0.161-0.265,0.32-0.395,0.483c-2.223,0.152-0.938,4.003-1.292,6.221c23.126,2.658,35.139,16.43,42.72,34.606V0H71.634
		v151.958C78.148,136.386,87.891,123.52,103.437,119.213z"/>
	<path fill="#C8CFE1" d="M165.184,114.48c0.002-0.456,0.044-0.891,0.119-1.307C165.227,113.59,165.185,114.024,165.184,114.48z"/>
	<path fill="#FFFFFF" d="M112.619,110.602c-1.835-2.235-3.867-4.263-6.091-6.068C108.375,106.764,110.397,108.775,112.619,110.602z"
		/>
	<path fill="#FFFFFF" d="M166.94,111.122c0.129-0.163,0.262-0.322,0.394-0.483c-0.134,0.109-0.259,0.225-0.394,0.331
		c2.091-2.629,4.446-4.981,7.064-7.03c-0.121,0.149-0.251,0.289-0.372,0.437c0.118-0.095,0.234-0.193,0.356-0.288
		c0.14-0.934,1.047-1.266,1.28-2.106c-0.104,0.143-0.214,0.283-0.33,0.421c-2.867,3.555-8.736,5.819-9.637,10.771
		c-0.075,0.416-0.118,0.851-0.119,1.307c-0.002,0.871,0.142,1.819,0.463,2.862h0.001
		C166.001,115.125,164.718,111.274,166.94,111.122z"/>
	<path fill="#FFFFFF" d="M167.334,110.639c2.319-1.887,4.408-3.972,6.299-6.263C171.319,106.23,169.219,108.325,167.334,110.639z"/>
	<path fill="#FFFFFF" d="M166.94,110.97c0.135-0.106,0.26-0.222,0.394-0.331c1.885-2.313,3.985-4.408,6.299-6.263
		c0.121-0.147,0.251-0.287,0.372-0.437C171.387,105.988,169.031,108.341,166.94,110.97z"/>
	<path fill="#FFFFFE" d="M165.647,117.344c0,0.004-0.001,0.01-0.001,0.014c-0.322-1.047-0.465-2-0.463-2.877
		c0.001-0.457,0.043-0.891,0.119-1.307c0.901-4.984,6.77-7.32,9.637-10.771c0.115-0.143,0.226-0.286,0.33-0.435
		c3.62-4.294,7.775-7.954,8.339-15.375c8.825-0.259,9.733-18.485,0.65-19.228c-1.381-30.321-11.068-52.273-38.487-56.431
		c-3.854,0-7.68,0-11.548,0c-27.21,4.239-37.023,25.795-38.498,56.061c-8.352,1.39-8.712,19.092,0.65,19.765
		c0.659,8.175,5.929,12.043,9.62,17.342c0.179,0.141,0.355,0.286,0.532,0.431c-0.174-0.212-0.35-0.421-0.521-0.636
		c2.632,2.091,4.969,4.443,7.06,7.072c-0.151-0.121-0.299-0.246-0.448-0.368c0.146,0.177,0.293,0.354,0.437,0.533
		c1.997,0.14,1.059,3.016,1.282,4.957c-3.139,3.164-7.517,2.175-10.901,3.121C87.891,123.52,51.634,115.919,51.634,175h20h136.733
		h20C228.367,120.5,188.774,120.002,165.647,117.344z"/>
	<path fill="#FFFFFF" d="M112.619,110.602c0.149,0.122,0.297,0.247,0.448,0.368c-2.091-2.629-4.428-4.981-7.06-7.072
		c0.171,0.214,0.347,0.424,0.521,0.636C108.752,106.339,110.784,108.366,112.619,110.602z"/>
	<path fill="#FFFFFF" d="M174.939,102.402c-2.866,3.451-8.735,5.787-9.637,10.771C166.204,108.222,172.073,105.958,174.939,102.402z
		"/>
	<path fill="#FFFFFF" d="M165.184,114.48c-0.002,0.877,0.141,1.83,0.463,2.877c0-0.005,0.001-0.01,0.001-0.014h-0.001
		C165.325,116.3,165.182,115.352,165.184,114.48z"/>
</g>
</svg>
