<?xml version="1.0" encoding="utf-8"?>
<!-- Generator: Adobe Illustrator 15.0.2, SVG Export Plug-In . SVG Version: 6.00 Build 0)  -->
<!DOCTYPE svg PUBLIC "-//W3C//DTD SVG 1.1//EN" "http://www.w3.org/Graphics/SVG/1.1/DTD/svg11.dtd">
<svg version="1.1" id="Calque_1" xmlns="http://www.w3.org/2000/svg" xmlns:xlink="http://www.w3.org/1999/xlink" x="0px" y="0px"
	 width="139.982px" height="139.982px" viewBox="0 0 139.982 139.982" enable-background="new 0 0 139.982 139.982"
	 xml:space="preserve">
<circle fill="#FEE8E8" cx="69.991" cy="69.991" r="70"/>
<g>
	<path fill="#00CC00" d="M95.838,41.925c-0.316-1.124-0.668-2.233-1.056-3.325c2.68,2.119,5.081,4.574,7.142,7.301
		c-0.97-0.49-1.954-0.953-2.953-1.39C98.416,43.208,97.253,42.229,95.838,41.925z"/>
	<path fill="#00CC00" d="M48.045,63.498c6.594,12.879,18.524,22.591,32.854,26.204c0.146,0.807,0.513,1.535,1.034,2.125
		c-7.14,7.409-16.492,12.564-26.945,14.326c-6.771-8.426-10.829-19.119-10.829-30.746c0-4.182,0.526-8.245,1.514-12.125
		c0.488,0.186,1.016,0.292,1.568,0.292C47.515,63.574,47.783,63.546,48.045,63.498z"/>
	<path fill="#00CC00" d="M88.685,86.148c5.757-8.448,9.139-18.717,9.139-29.782c0-2.202-0.135-4.372-0.395-6.503
		c1.08-0.753,1.803-1.977,1.881-3.374c1.6,0.737,3.16,1.543,4.677,2.418c3.805,6.122,6.004,13.345,6.004,21.083
		c0,6.475-1.54,12.589-4.271,18c-3.961,1.032-8.115,1.584-12.396,1.584c-1.245,0-2.479-0.049-3.702-0.14
		c0.021-0.173,0.034-0.349,0.034-0.528C89.656,87.862,89.292,86.905,88.685,86.148z"/>
	<path fill="#00CC00" d="M70.496,29.997c-5.391,2.721-10.233,6.375-14.316,10.747c-0.521-0.216-1.091-0.336-1.689-0.336
		c-2.439,0-4.417,1.978-4.417,4.417c0,0.137,0.008,0.273,0.021,0.407c-1.83,0.867-3.611,1.822-5.333,2.865
		c-0.396-2.506-0.603-5.074-0.603-7.689c0-0.322,0.006-0.643,0.012-0.963c6.969-5.896,15.979-9.453,25.821-9.453
		C70.16,29.991,70.328,29.995,70.496,29.997z"/>
	<path fill="#00CC00" d="M31.516,59.013c1.993-6.996,5.843-13.209,10.981-18.074c0.028,2.764,0.277,5.476,0.732,8.119
		C38.906,51.861,34.968,55.211,31.516,59.013z"/>
	<path fill="#00CC00" d="M75.324,39.574c-6.022,0-11.837,0.907-17.316,2.587c-0.13-0.171-0.269-0.334-0.421-0.484
		c4.602-4.873,10.186-8.808,16.433-11.485c6.727,0.672,12.961,3.011,18.287,6.598c0.684,1.661,1.279,3.367,1.789,5.112
		c-0.39,0.072-0.761,0.198-1.107,0.365C87.407,40.518,81.474,39.574,75.324,39.574z"/>
	<path fill="#00CC00" d="M83.258,92.85c0.597,0.301,1.269,0.475,1.982,0.475c1.655,0,3.097-0.913,3.853-2.262
		c1.396,0.115,2.807,0.178,4.231,0.178c3.893,0,7.685-0.441,11.328-1.273c-6.913,11.969-19.846,20.023-34.661,20.023
		c-4.791,0-9.386-0.844-13.644-2.389C66.784,105.602,76.106,100.324,83.258,92.85z"/>
	<path fill="#00CC00" d="M46.878,54.759c-0.189,0.016-0.376,0.041-0.558,0.079c-0.5-1.624-0.916-3.285-1.246-4.975
		c1.77-1.1,3.603-2.107,5.493-3.013c0.103,0.197,0.22,0.384,0.35,0.563C49.378,49.736,48.024,52.191,46.878,54.759z"/>
	<path fill="#00CC00" d="M91.42,43.537c-0.581,0.748-0.93,1.684-0.93,2.704c0,2.439,1.978,4.417,4.416,4.417
		c0.317,0,0.626-0.035,0.924-0.098c0.214,1.906,0.328,3.843,0.328,5.807c0,10.653-3.236,20.544-8.75,28.697
		c-0.641-0.363-1.38-0.572-2.168-0.572c-2.124,0-3.896,1.5-4.319,3.498C67.285,84.43,55.937,75.154,49.604,62.884
		c1.232-0.784,2.052-2.158,2.052-3.727c0-1.958-1.275-3.617-3.041-4.195c1.022-2.226,2.206-4.363,3.536-6.396
		c0.679,0.425,1.479,0.675,2.339,0.675c2.438,0,4.416-1.978,4.416-4.417c0-0.397-0.057-0.779-0.155-1.145
		c5.251-1.583,10.813-2.438,16.573-2.438C80.91,41.241,86.31,42.045,91.42,43.537z"/>
	<path fill="#00CC00" d="M43.567,50.831c0.331,1.582,0.734,3.137,1.208,4.661c-1.177,0.793-1.952,2.139-1.952,3.666
		c0,1.257,0.528,2.389,1.371,3.193c-1.109,4.168-1.703,8.544-1.703,13.056c0,11.544,3.87,22.199,10.377,30.742
		c-13.523-6.416-22.877-20.194-22.877-36.158c0-2.547,0.241-5.037,0.696-7.452C34.36,58.019,38.705,54.065,43.567,50.831z"/>
	<path fill="#00CC00" d="M53.089,106.436c-0.073-0.096-0.147-0.191-0.221-0.287c0.177,0.083,0.353,0.166,0.53,0.246
		C53.295,106.41,53.192,106.423,53.089,106.436z"/>
	<path fill="#00CC00" d="M56.347,107.602c-0.043,0.008-0.087,0.018-0.131,0.025c-0.031-0.035-0.063-0.072-0.094-0.107
		C56.198,107.548,56.272,107.575,56.347,107.602z"/>
</g>
</svg>
