<?xml version="1.0" encoding="utf-8"?>
<!-- Generator: Adobe Illustrator 15.0.2, SVG Export Plug-In . SVG Version: 6.00 Build 0)  -->
<!DOCTYPE svg PUBLIC "-//W3C//DTD SVG 1.1//EN" "http://www.w3.org/Graphics/SVG/1.1/DTD/svg11.dtd">
<svg version="1.1" id="Calque_1" xmlns="http://www.w3.org/2000/svg" xmlns:xlink="http://www.w3.org/1999/xlink" x="0px" y="0px"
	 width="280px" height="365px" viewBox="0 0 280 365" enable-background="new 0 0 280 365" xml:space="preserve">
<g>
	<path fill="#C8CFE1" d="M65.125,250.762c6.931-1.939,15.897,0.089,22.324-6.393c-0.457-3.976,1.464-9.864-2.625-10.151
		c-0.293-0.369-0.596-0.729-0.895-1.093c-4.55-3.737-8.691-7.857-12.472-12.427c-0.363-0.295-0.722-0.594-1.09-0.883
		c-7.558-10.849-18.352-18.77-19.699-35.512c-19.173-1.378-18.437-37.628-1.332-40.474C52.356,81.852,72.45,37.71,128.172,29.03
		c7.922,0,15.758,0,23.648,0c56.147,8.514,75.985,53.468,78.813,115.558c18.6,1.522,16.74,38.844-1.333,39.375
		c-1.153,15.195-9.663,22.691-17.074,31.484c-0.215,0.302-0.44,0.598-0.677,0.89c0.236-0.283,0.462-0.57,0.677-0.862
		c-0.479,1.722-2.337,2.4-2.624,4.313c-0.247,0.193-0.486,0.395-0.73,0.591c-3.87,4.689-8.149,8.961-12.898,12.824
		c-0.268,0.33-0.541,0.654-0.805,0.988c-4.553,0.313-1.924,8.199-2.646,12.741c47.356,5.444,71.955,33.644,87.478,70.866V0H0
		v317.817C13.34,285.927,33.291,259.579,65.125,250.762z"/>
	<path fill="#C8CFE1" d="M191.57,241.07c0.003-0.934,0.09-1.824,0.244-2.678C191.659,239.245,191.572,240.135,191.57,241.07z"/>
	<path fill="#FFFFFF" d="M83.929,233.125c-3.757-4.575-7.918-8.729-12.472-12.427C75.238,225.268,79.379,229.388,83.929,233.125z"/>
	<path fill="#FFFFFF" d="M195.168,234.191c0.264-0.334,0.537-0.658,0.805-0.988c-0.272,0.223-0.529,0.459-0.805,0.678
		c4.281-5.385,9.106-10.202,14.465-14.398c-0.246,0.307-0.512,0.594-0.762,0.896c0.244-0.196,0.483-0.397,0.73-0.591
		c0.287-1.912,2.145-2.591,2.624-4.313c-0.215,0.292-0.44,0.579-0.677,0.862c-5.872,7.279-17.89,11.915-19.734,22.055
		c-0.154,0.854-0.241,1.744-0.244,2.678c-0.003,1.784,0.291,3.727,0.949,5.862c0.001,0,0.002,0,0.003,0
		C193.244,242.391,190.615,234.504,195.168,234.191z"/>
	<path fill="#FFFFFF" d="M195.973,233.203c4.749-3.863,9.028-8.135,12.898-12.824C204.135,224.176,199.833,228.465,195.973,233.203z
		"/>
	<path fill="#FFFFFF" d="M195.168,233.881c0.275-0.219,0.532-0.455,0.805-0.678c3.86-4.738,8.162-9.027,12.898-12.824
		c0.25-0.303,0.516-0.59,0.762-0.896C204.274,223.679,199.449,228.496,195.168,233.881z"/>
	<path fill="#FFFFFE" d="M192.522,246.933c-0.001,0.009-0.002,0.019-0.003,0.027c-0.66-2.142-0.953-4.094-0.949-5.89
		c0.002-0.936,0.089-1.825,0.244-2.678c1.845-10.205,13.862-14.987,19.734-22.055c0.236-0.292,0.462-0.588,0.677-0.89
		c7.411-8.793,15.921-16.289,17.074-31.484c18.073-0.531,19.933-37.854,1.333-39.375c-2.827-62.09-22.665-107.044-78.813-115.558
		c-7.891,0-15.727,0-23.648,0C72.45,37.71,52.356,81.852,49.336,143.83c-17.104,2.846-17.841,39.096,1.332,40.474
		c1.348,16.742,12.142,24.663,19.699,35.512c0.368,0.289,0.728,0.588,1.09,0.883c-0.357-0.432-0.716-0.861-1.067-1.301
		c5.39,4.281,10.175,9.099,14.457,14.483c-0.31-0.248-0.612-0.504-0.918-0.756c0.299,0.363,0.602,0.724,0.895,1.093
		c4.089,0.287,2.168,6.176,2.625,10.151c-6.427,6.481-15.394,4.453-22.324,6.393C33.291,259.579,13.34,285.927,0,317.817V365h280
		v-47.201C264.478,280.576,239.879,252.377,192.522,246.933z"/>
	<path fill="#FFFFFF" d="M83.929,233.125c0.307,0.252,0.608,0.508,0.918,0.756c-4.282-5.385-9.067-10.202-14.457-14.483
		c0.351,0.439,0.71,0.869,1.067,1.301C76.011,224.396,80.172,228.55,83.929,233.125z"/>
	<path fill="#FFFFFF" d="M211.549,216.338c-5.872,7.067-17.89,11.85-19.734,22.055C193.659,228.253,205.677,223.617,211.549,216.338
		z"/>
	<path fill="#FFFFFF" d="M191.57,241.07c-0.004,1.796,0.289,3.748,0.949,5.89c0.001-0.009,0.002-0.019,0.003-0.027
		c-0.001,0-0.002,0-0.003,0C191.861,244.797,191.567,242.854,191.57,241.07z"/>
</g>
</svg>
