<?xml version="1.0" encoding="utf-8"?>
<!-- Generator: Adobe Illustrator 15.0.2, SVG Export Plug-In . SVG Version: 6.00 Build 0)  -->
<!DOCTYPE svg PUBLIC "-//W3C//DTD SVG 1.1//EN" "http://www.w3.org/Graphics/SVG/1.1/DTD/svg11.dtd">
<svg version="1.1" id="Calque_1" xmlns="http://www.w3.org/2000/svg" xmlns:xlink="http://www.w3.org/1999/xlink" x="0px" y="0px"
	 width="139.982px" height="139.982px" viewBox="0 0 139.982 139.982" enable-background="new 0 0 139.982 139.982"
	 xml:space="preserve">
<circle fill="#FEE8E8" cx="69.991" cy="69.991" r="70"/>
<path fill="#00CC00" d="M50.416,111.861c0,0,14.353-10.673,14.353-17.113h25.946c0,0,9.522,1.472,13.249-14.629
	c3.727-16.101,5.935-24.887,5.935-24.887s2.161-16.285-14.354-15.043c-16.516,1.243-49.775,4.095-49.775,4.095
	s-9.799,0.644-12.788,4.554c-2.991,3.911-2.991,9.477-2.991,15.917c0,6.44,0,17.895,0,17.895s0.092,4.554,3.037,7.499
	c2.943,2.943,3.91,4.6,22.679,4.6c0,0,1.334,1.242,1.334,3.911C57.041,101.327,54.832,108.043,50.416,111.861z"/>
</svg>
