<?xml version="1.0" encoding="utf-8"?>
<!-- Generator: Adobe Illustrator 15.0.2, SVG Export Plug-In . SVG Version: 6.00 Build 0)  -->
<!DOCTYPE svg PUBLIC "-//W3C//DTD SVG 1.1//EN" "http://www.w3.org/Graphics/SVG/1.1/DTD/svg11.dtd">
<svg version="1.1" id="Calque_1" xmlns="http://www.w3.org/2000/svg" xmlns:xlink="http://www.w3.org/1999/xlink" x="0px" y="0px"
	 width="339.957px" height="219.973px" viewBox="0 0 339.957 219.973" enable-background="new 0 0 339.957 219.973"
	 xml:space="preserve">
<rect x="-0.022" y="-0.013" fill="#C8CFE1" width="340" height="220"/>
<g>
	<path fill="#C8CFE1" d="M124.854,151.125c4.177-1.168,9.581,0.055,13.454-3.852c-0.276-2.397,0.882-5.946-1.582-6.118
		c-0.177-0.222-0.36-0.44-0.54-0.659c-2.743-2.252-5.238-4.735-7.517-7.489c-0.218-0.178-0.435-0.358-0.656-0.532
		c-4.555-6.538-11.06-11.312-11.872-21.401c-11.555-0.831-11.112-22.678-0.803-24.393c1.82-37.351,13.93-63.954,47.512-69.186
		c4.774,0,9.497,0,14.252,0c33.837,5.131,45.793,32.224,47.497,69.643c11.209,0.917,10.09,23.41-0.804,23.73
		c-0.694,9.157-5.823,13.675-10.288,18.975c-0.131,0.182-0.267,0.36-0.409,0.536c0.143-0.17,0.278-0.344,0.409-0.52
		c-0.29,1.038-1.41,1.446-1.582,2.6c-0.148,0.115-0.293,0.238-0.44,0.355c-2.333,2.826-4.911,5.4-7.772,7.729
		c-0.162,0.199-0.326,0.395-0.485,0.596c-2.744,0.188-1.16,4.941-1.595,7.678c28.539,3.282,43.365,20.277,52.72,42.709V0H85.605
		v191.537C93.645,172.318,105.669,156.439,124.854,151.125z"/>
	<path fill="#C8CFE1" d="M201.058,145.285c0.001-0.563,0.054-1.1,0.146-1.614C201.112,144.185,201.059,144.721,201.058,145.285z"/>
	<path fill="#FFFFFF" d="M136.187,140.496c-2.265-2.757-4.772-5.26-7.517-7.489C130.948,135.761,133.444,138.244,136.187,140.496z"
		/>
	<path fill="#FFFFFF" d="M203.226,141.139c0.158-0.201,0.324-0.396,0.484-0.596c-0.163,0.135-0.318,0.277-0.484,0.408
		c2.58-3.244,5.488-6.147,8.717-8.677c-0.148,0.186-0.309,0.358-0.459,0.54c0.148-0.117,0.291-0.238,0.441-0.355
		c0.172-1.152,1.291-1.562,1.58-2.6c-0.129,0.176-0.265,0.349-0.407,0.52c-3.54,4.387-10.782,7.181-11.894,13.292
		c-0.093,0.515-0.146,1.051-0.146,1.614c-0.002,1.074,0.176,2.246,0.572,3.531l0,0C202.066,146.08,200.482,141.327,203.226,141.139z
		"/>
	<path fill="#FFFFFF" d="M203.711,140.543c2.863-2.328,5.441-4.902,7.773-7.729C208.631,135.103,206.038,137.688,203.711,140.543z"
		/>
	<path fill="#FFFFFF" d="M203.226,140.951c0.166-0.131,0.321-0.273,0.484-0.408c2.327-2.855,4.92-5.44,7.773-7.729
		c0.15-0.183,0.311-0.355,0.459-0.54C208.715,134.804,205.806,137.707,203.226,140.951z"/>
	<path fill="#FFFFFE" d="M201.631,148.819c0,0.004,0,0.011,0,0.016c-0.398-1.291-0.574-2.468-0.572-3.549
		c0.001-0.565,0.054-1.101,0.146-1.614c1.112-6.15,8.354-9.033,11.894-13.292c0.143-0.176,0.278-0.354,0.407-0.536
		c4.467-5.3,9.596-9.817,10.29-18.975c10.893-0.32,12.013-22.813,0.803-23.73c-1.703-37.419-13.659-64.511-47.497-69.643
		c-4.756,0-9.479,0-14.252,0c-33.581,5.231-45.691,31.834-47.511,69.187c-10.308,1.715-10.752,23.562,0.803,24.393
		c0.812,10.089,7.317,14.862,11.872,21.401c0.221,0.174,0.438,0.354,0.656,0.532c-0.215-0.26-0.431-0.52-0.643-0.784
		c3.248,2.58,6.132,5.483,8.712,8.728c-0.187-0.148-0.369-0.303-0.553-0.455c0.18,0.219,0.362,0.438,0.54,0.659
		c2.464,0.172,1.306,3.722,1.582,6.118c-3.874,3.904-9.278,2.684-13.454,3.852c-19.186,5.313-59.249,0-59.249,68.848h20h168.746h20
		C274.351,148.834,230.172,152.099,201.631,148.819z"/>
	<path fill="#FFFFFF" d="M136.187,140.496c0.185,0.152,0.366,0.307,0.553,0.455c-2.58-3.244-5.464-6.147-8.712-8.728
		c0.212,0.265,0.428,0.524,0.643,0.784C131.414,135.237,133.922,137.74,136.187,140.496z"/>
	<path fill="#FFFFFF" d="M213.098,130.379c-3.538,4.259-10.781,7.142-11.894,13.292C202.317,137.56,209.56,134.767,213.098,130.379z
		"/>
	<path fill="#FFFFFF" d="M201.058,145.285c-0.002,1.081,0.174,2.258,0.572,3.549c0-0.006,0-0.012,0-0.016l0,0
		C201.234,147.531,201.056,146.36,201.058,145.285z"/>
</g>
<text transform="matrix(1 0 0 1 1052.5984 -351.6335)" font-family="'MyriadPro-Regular'" font-size="12">m² US</text>
</svg>
