<?xml version="1.0" encoding="utf-8"?>
<!-- Generator: Adobe Illustrator 15.0.2, SVG Export Plug-In . SVG Version: 6.00 Build 0)  -->
<!DOCTYPE svg PUBLIC "-//W3C//DTD SVG 1.1//EN" "http://www.w3.org/Graphics/SVG/1.1/DTD/svg11.dtd">
<svg version="1.1" id="Calque_1" xmlns="http://www.w3.org/2000/svg" xmlns:xlink="http://www.w3.org/1999/xlink" x="0px" y="0px"
	 width="139.982px" height="139.982px" viewBox="0 0 139.982 139.982" enable-background="new 0 0 139.982 139.982"
	 xml:space="preserve">
<circle fill="#FEE8E8" cx="69.991" cy="69.991" r="70"/>
<path fill="#00CC00" d="M37.211,70.945c0,0,1.496,25.643,1.496,32.694c0,0,5.557-2.35,10.257-2.35s15.813,4.701,23.078,4.701
	s14.022-1.47,16.105-2.271c2.084-0.801,2.885-2.965,2.885-4.327s-0.48-1.122-0.48-2.363c0-1.242,6.05-3.246,6.05-7.413
	s-0.762-1.963-0.762-3.646s4.167-1.362,4.167-6.251c0-4.888-1.643-3.285-1.643-5.368c0-2.084,4.407-1.402,4.407-5.89
	s-3.846-6.491-8.935-6.491c-5.088,0-17.909,2.164-17.909-5.489c0-7.652,6.37-11.539,6.37-19.792c0-8.254-1.683-10.698-5.209-10.698
	c-3.525,0-3.205,8.574-5.288,12.1c-2.084,3.526-13.703,16.188-15.146,18.671C55.213,59.246,50.38,70.945,37.211,70.945z"/>
</svg>
