<?xml version="1.0" encoding="utf-8"?>
<!-- Generator: Adobe Illustrator 15.0.2, SVG Export Plug-In . SVG Version: 6.00 Build 0)  -->
<!DOCTYPE svg PUBLIC "-//W3C//DTD SVG 1.1//EN" "http://www.w3.org/Graphics/SVG/1.1/DTD/svg11.dtd">
<svg version="1.1" id="Effet_NoPatch" xmlns="http://www.w3.org/2000/svg" xmlns:xlink="http://www.w3.org/1999/xlink" x="0px"
	 y="0px" width="150px" height="220px" viewBox="0 0 150 220" enable-background="new 0 0 150 220" xml:space="preserve">
<g>
	<path fill="#C8CFE1" d="M34.889,158.802c3.713-1.039,8.517,0.048,11.959-3.425c-0.245-2.131,0.784-5.285-1.406-5.438
		c-0.157-0.197-0.319-0.391-0.479-0.586c-2.438-2.001-4.656-4.209-6.682-6.656c-0.194-0.159-0.387-0.319-0.584-0.474
		c-4.048-5.813-9.832-10.056-10.553-19.024c-10.271-0.738-9.877-20.158-0.713-21.683c1.618-33.202,12.383-56.849,42.233-61.499
		c4.245,0,8.442,0,12.668,0c30.079,4.561,40.706,28.644,42.222,61.906c9.964,0.815,8.968,20.81-0.715,21.093
		c-0.617,8.141-5.177,12.157-9.146,16.867c-0.114,0.161-0.235,0.32-0.362,0.477c0.126-0.151,0.248-0.306,0.362-0.462
		c-0.256,0.923-1.252,1.286-1.406,2.311c-0.132,0.104-0.26,0.213-0.39,0.316c-2.074,2.513-4.366,4.801-6.909,6.87
		c-0.145,0.177-0.29,0.351-0.433,0.53c-2.438,0.167-1.03,4.392-1.417,6.825c25.369,2.916,38.548,18.023,46.862,37.963V0H0v194.723
		C7.147,177.64,17.835,163.525,34.889,158.802z"/>
	<path fill="#C8CFE1" d="M102.627,153.609c0.002-0.5,0.048-0.978,0.131-1.435C102.675,152.632,102.628,153.108,102.627,153.609z"/>
	<path fill="#FFFFFF" d="M44.962,149.353c-2.013-2.45-4.242-4.676-6.682-6.656C40.306,145.144,42.524,147.352,44.962,149.353z"/>
	<path fill="#FFFFFF" d="M104.555,149.925c0.141-0.18,0.288-0.354,0.431-0.53c-0.146,0.12-0.283,0.246-0.431,0.363
		c2.293-2.885,4.877-5.466,7.749-7.713c-0.132,0.164-0.274,0.318-0.408,0.479c0.131-0.104,0.258-0.212,0.391-0.316
		c0.154-1.024,1.149-1.388,1.405-2.311c-0.114,0.156-0.235,0.311-0.362,0.462c-3.146,3.899-9.584,6.383-10.571,11.815
		c-0.083,0.457-0.13,0.935-0.131,1.435c-0.002,0.955,0.156,1.996,0.509,3.141h0.001
		C103.523,154.316,102.115,150.092,104.555,149.925z"/>
	<path fill="#FFFFFF" d="M104.985,149.395c2.545-2.069,4.837-4.357,6.91-6.87C109.358,144.559,107.053,146.856,104.985,149.395z"/>
	<path fill="#FFFFFF" d="M104.555,149.758c0.147-0.117,0.285-0.243,0.431-0.363c2.067-2.538,4.373-4.836,6.91-6.87
		c0.134-0.162,0.276-0.315,0.408-0.479C109.432,144.292,106.848,146.873,104.555,149.758z"/>
	<path fill="#FFFFFE" d="M103.137,156.751c0,0.004-0.001,0.009-0.001,0.013c-0.354-1.146-0.511-2.192-0.509-3.154
		c0.001-0.501,0.048-0.978,0.131-1.435c0.988-5.467,7.426-8.029,10.571-11.815c0.127-0.156,0.248-0.315,0.362-0.477
		c3.971-4.71,8.53-8.727,9.147-16.867c9.682-0.283,10.679-20.278,0.714-21.093c-1.515-33.262-12.142-57.345-42.222-61.906
		c-4.227,0-8.424,0-12.668,0c-29.85,4.65-40.615,28.297-42.233,61.5c-9.163,1.525-9.558,20.945,0.713,21.683
		c0.723,8.969,6.505,13.212,10.553,19.024c0.197,0.154,0.39,0.314,0.584,0.473c-0.191-0.23-0.383-0.461-0.571-0.696
		c2.887,2.292,5.451,4.873,7.745,7.758c-0.166-0.133-0.328-0.271-0.492-0.405c0.16,0.195,0.322,0.389,0.479,0.586
		c2.19,0.153,1.162,3.31,1.406,5.438c-3.443,3.472-8.247,2.385-11.959,3.425C17.835,163.525,7.147,177.64,0,194.723V220h150v-25.287
		C141.686,174.773,128.507,159.666,103.137,156.751z"/>
	<path fill="#FFFFFF" d="M44.962,149.353c0.165,0.135,0.326,0.272,0.492,0.405c-2.294-2.885-4.857-5.466-7.745-7.758
		c0.188,0.234,0.38,0.466,0.571,0.696C40.721,144.677,42.95,146.902,44.962,149.353z"/>
	<path fill="#FFFFFF" d="M113.33,140.36c-3.146,3.785-9.584,6.348-10.572,11.814C103.746,146.743,110.185,144.259,113.33,140.36z"/>
	<path fill="#FFFFFF" d="M102.627,153.609c-0.002,0.962,0.155,2.008,0.509,3.154c0-0.004,0.001-0.009,0.001-0.013h-0.001
		C102.783,155.605,102.625,154.564,102.627,153.609z"/>
</g>
</svg>
