<?xml version="1.0" encoding="utf-8"?>
<!-- Generator: Adobe Illustrator 15.0.2, SVG Export Plug-In . SVG Version: 6.00 Build 0)  -->
<!DOCTYPE svg PUBLIC "-//W3C//DTD SVG 1.1//EN" "http://www.w3.org/Graphics/SVG/1.1/DTD/svg11.dtd">
<svg version="1.1" id="Calque_1" xmlns="http://www.w3.org/2000/svg" xmlns:xlink="http://www.w3.org/1999/xlink" x="0px" y="0px"
	 width="205px" height="205px" viewBox="0 0 205 205" enable-background="new 0 0 205 205" xml:space="preserve">
<g>
	<path fill="#006E12" d="M85.485,138.248c2.033,1.625,3.861,3.447,5.486,5.479C88.93,142.116,87.102,140.287,85.485,138.248z"/>
	<path fill="#006E12" d="M131.817,148.715c-2.002-6.49,4.871-8.423,7.486-11.957c-0.177,0.655-0.881,0.785-0.998,1.495
		c-2.032,1.62-3.856,3.447-5.479,5.484C131.087,143.989,132.091,146.989,131.817,148.715z"/>
	<path fill="#006E12" d="M132.82,143.737c1.627-2.041,3.453-3.864,5.485-5.486C136.682,140.287,134.86,142.116,132.82,143.737z"/>
	<path fill="#006E12" d="M107.41,66c2.988,0,5.981,0,8.965,0c21.312,3.269,28.832,20.33,29.9,43.846
		c7.066,0.578,6.366,14.745-0.492,14.953c-0.452,5.698-3.659,8.646-6.484,11.955c-2.61,3.543-9.475,5.468-7.481,11.958
		c25.032,2.879,33.322,22.481,38.867,44.847c-39.19,0-78.391,0-117.593,0c4.625-19.157,12.664-38.354,30.392-43.35
		c2.628-0.742,6.041,0.018,8.466-2.491c-0.159-1.513,0.552-3.874-0.993-3.988c-1.618-2.035-3.452-3.857-5.487-5.479
		c-2.862-4.11-6.966-6.98-7.472-13.454c-7.289-0.545-6.996-14.271-0.496-15.451C78.631,86.047,86.262,69.277,107.41,66z"/>
</g>
</svg>
