<?xml version="1.0" encoding="utf-8"?>
<!-- Generator: Adobe Illustrator 15.0.2, SVG Export Plug-In . SVG Version: 6.00 Build 0)  -->
<!DOCTYPE svg PUBLIC "-//W3C//DTD SVG 1.1//EN" "http://www.w3.org/Graphics/SVG/1.1/DTD/svg11.dtd">
<svg version="1.1" id="Calque_1" xmlns="http://www.w3.org/2000/svg" xmlns:xlink="http://www.w3.org/1999/xlink" x="0px" y="0px"
	 width="92px" height="56px" viewBox="0 0 92 56" enable-background="new 0 0 92 56" xml:space="preserve">
<g>
	<path fill="#FFFBFF" d="M36.402,30.896c0.739,0.591,1.403,1.253,1.994,1.991C37.654,32.302,36.99,31.637,36.402,30.896z"/>
	<path fill="#FFFBFF" d="M53.243,34.7c-0.727-2.359,1.771-3.062,2.722-4.347c-0.064,0.238-0.32,0.285-0.363,0.543
		c-0.738,0.59-1.401,1.254-1.99,1.993C52.978,32.982,53.343,34.073,53.243,34.7z"/>
	<path fill="#FFFBFF" d="M53.607,32.89c0.592-0.741,1.256-1.403,1.994-1.993C55.012,31.637,54.35,32.302,53.607,32.89z"/>
	<path fill="#FFFBFF" d="M44.372,4.633c1.086,0,2.174,0,3.258,0c7.747,1.188,10.48,7.39,10.869,15.938
		c2.569,0.21,2.314,5.36-0.179,5.435c-0.164,2.072-1.33,3.143-2.356,4.346c-0.95,1.288-3.444,1.987-2.721,4.348
		c9.1,1.046,12.113,8.171,14.129,16.301c-14.246,0-28.495,0-42.745,0c1.681-6.964,4.604-13.941,11.047-15.758
		c0.955-0.27,2.195,0.007,3.078-0.904c-0.058-0.55,0.201-1.408-0.361-1.45c-0.588-0.739-1.254-1.401-1.995-1.991
		c-1.04-1.494-2.532-2.537-2.716-4.891c-2.649-0.199-2.543-5.187-0.18-5.616C33.91,11.92,36.685,5.824,44.372,4.633z"/>
</g>
</svg>
