<?xml version="1.0" encoding="utf-8"?>
<!-- Generator: Adobe Illustrator 15.0.2, SVG Export Plug-In . SVG Version: 6.00 Build 0)  -->
<!DOCTYPE svg PUBLIC "-//W3C//DTD SVG 1.1//EN" "http://www.w3.org/Graphics/SVG/1.1/DTD/svg11.dtd">
<svg version="1.1" id="Calque_1" xmlns="http://www.w3.org/2000/svg" xmlns:xlink="http://www.w3.org/1999/xlink" x="0px" y="0px"
	 width="80px" height="80px" viewBox="0 0 80 80" enable-background="new 0 0 80 80" xml:space="preserve">
<g>
	<path fill="#FFFBFF" d="M30.968,27.714c0.695,0.556,1.32,1.179,1.876,1.874C32.146,29.037,31.521,28.411,30.968,27.714z"/>
	<path fill="#FFFBFF" d="M46.816,31.294c-0.684-2.22,1.666-2.881,2.561-4.09c-0.061,0.224-0.301,0.269-0.342,0.511
		c-0.694,0.555-1.318,1.18-1.873,1.876C46.566,29.678,46.91,30.704,46.816,31.294z"/>
	<path fill="#FFFBFF" d="M47.159,29.591c0.557-0.698,1.182-1.321,1.876-1.876C48.48,28.411,47.857,29.037,47.159,29.591z"/>
	<path fill="#FFFBFF" d="M38.468,3c1.022,0,2.046,0,3.066,0c7.29,1.118,9.862,6.954,10.228,14.998
		c2.418,0.198,2.178,5.044-0.168,5.115c-0.154,1.949-1.252,2.958-2.218,4.089c-0.894,1.212-3.241,1.87-2.56,4.091
		c8.563,0.984,11.399,7.689,13.295,15.34c-13.405,0-26.814,0-40.224,0c1.582-6.553,4.332-13.119,10.396-14.828
		c0.899-0.254,2.066,0.006,2.896-0.852c-0.054-0.518,0.189-1.325-0.339-1.364c-0.554-0.696-1.181-1.319-1.877-1.874
		c-0.979-1.406-2.383-2.388-2.556-4.602c-2.493-0.187-2.393-4.881-0.169-5.285C28.623,9.858,31.234,4.121,38.468,3z"/>
</g>
</svg>
