<?xml version="1.0" encoding="utf-8"?>
<!-- Generator: Adobe Illustrator 15.0.2, SVG Export Plug-In . SVG Version: 6.00 Build 0)  -->
<!DOCTYPE svg PUBLIC "-//W3C//DTD SVG 1.1//EN" "http://www.w3.org/Graphics/SVG/1.1/DTD/svg11.dtd">
<svg version="1.1" id="Calque_1" xmlns="http://www.w3.org/2000/svg" xmlns:xlink="http://www.w3.org/1999/xlink" x="0px" y="0px"
	 width="80px" height="80px" viewBox="0 0 80 80" enable-background="new 0 0 80 80" xml:space="preserve">
<g>
	<path fill="#FFFBFF" d="M27.581,43.984c0.957,0.764,1.816,1.62,2.58,2.576C29.201,45.804,28.341,44.943,27.581,43.984z"/>
	<path fill="#FFFBFF" d="M49.373,48.907c-0.941-3.052,2.291-3.96,3.521-5.624c-0.083,0.307-0.414,0.369-0.47,0.703
		c-0.955,0.763-1.812,1.623-2.576,2.578C49.031,46.685,49.502,48.096,49.373,48.907z"/>
	<path fill="#FFFBFF" d="M49.846,46.565c0.764-0.96,1.624-1.817,2.579-2.579C51.662,44.943,50.805,45.804,49.846,46.565z"/>
	<path fill="#FFFBFF" d="M37.894,10c1.405,0,2.813,0,4.215,0c10.025,1.537,13.561,9.563,14.065,20.624
		c3.324,0.272,2.993,6.937-0.231,7.034c-0.213,2.681-1.721,4.066-3.05,5.623c-1.229,1.668-4.455,2.571-3.52,5.627
		C61.148,50.262,65.046,59.48,67.656,70c-18.436,0-36.873,0-55.313,0c2.175-9.012,5.957-18.038,14.295-20.391
		c1.235-0.35,2.841,0.01,3.983-1.17c-0.075-0.711,0.26-1.821-0.467-1.877c-0.761-0.955-1.623-1.813-2.582-2.575
		c-1.345-1.934-3.277-3.284-3.515-6.33c-3.428-0.257-3.29-6.712-0.233-7.266C24.356,19.43,27.948,11.542,37.894,10z"/>
</g>
</svg>
