<?xml version="1.0" encoding="utf-8"?>
<!-- Generator: Adobe Illustrator 15.0.2, SVG Export Plug-In . SVG Version: 6.00 Build 0)  -->
<!DOCTYPE svg PUBLIC "-//W3C//DTD SVG 1.1//EN" "http://www.w3.org/Graphics/SVG/1.1/DTD/svg11.dtd">
<svg version="1.1" id="Calque_1" xmlns="http://www.w3.org/2000/svg" xmlns:xlink="http://www.w3.org/1999/xlink" x="0px" y="0px"
	 width="320px" height="24px" viewBox="0 0 320 24" enable-background="new 0 0 320 24" xml:space="preserve">
<rect x="-5.5" y="-6" fill="#EEEBE8" width="331" height="36"/>
<rect x="0" y="21" fill="#E65E84" width="320" height="2.25"/>
<g>
	
		<linearGradient id="SVGID_1_" gradientUnits="userSpaceOnUse" x1="1455.4954" y1="1385.7588" x2="1455.4954" y2="1362.7588" gradientTransform="matrix(1 0 0 1 -1335.4805 -1362.7588)">
		<stop  offset="0" style="stop-color:#F01B57"/>
		<stop  offset="1" style="stop-color:#D31147"/>
	</linearGradient>
	<path fill="url(#SVGID_1_)" d="M159.016,19.965c0,1.678-1.357,3.035-3.035,3.035h-71.93c-1.676,0-3.035-1.357-3.035-3.035V3.034
		C81.016,1.357,82.375,0,84.051,0h71.93c1.678,0,3.035,1.357,3.035,3.034V19.965L159.016,19.965z"/>
</g>
<g>
	<path fill="#E65E84" d="M159.016,19.965c0,1.678-1.357,3.035-3.035,3.035h-71.93c-1.676,0-3.035-1.357-3.035-3.035V3.034
		C81.016,1.357,82.375,0,84.051,0h71.93c1.678,0,3.035,1.357,3.035,3.034V19.965L159.016,19.965z"/>
</g>
<rect x="0" y="23" fill="#2B89FE" width="320" height="1"/>
<g>
	<path fill="#E65E84" d="M239.016,19.965c0,1.678-1.355,3.035-3.035,3.035h-71.93c-1.676,0-3.035-1.357-3.035-3.035V3.034
		c0-1.677,1.359-3.034,3.035-3.034h71.93c1.68,0,3.035,1.357,3.035,3.034V19.965L239.016,19.965z"/>
</g>
<g id="Effet_NoPatch" display="none">
</g>
<path fill="#2B89FE" d="M238.984,20v-0.035h0.031V3.034c0-1.677-1.359-3.034-3.035-3.034h-71.93c-1.676,0-3.034,1.357-3.034,3.034
	v16.931h0.008V20h-2.003v-0.686h-0.002V3.034c0-1.677-1.358-3.034-3.035-3.034h-71.93c-1.676,0-3.035,1.357-3.035,3.034V19.49v0.475
	V20H0v1h81.516c0.276,0,0.5-0.225,0.5-0.5v-0.535V19.49V3.034C82.016,1.912,82.93,1,84.051,1h71.93c1.121,0,2.035,0.912,2.035,2.034
	v16.931h0.002V20.5c0,0.275,0.225,0.5,0.5,0.5h3.005c0.274,0,0.5-0.225,0.5-0.5v-1.498h-0.008V3.034
	c0-1.122,0.912-2.034,2.032-2.034h71.933c1.121,0,2.035,0.912,2.035,2.034V19.49h-0.031v1.01c0,0.275,0.225,0.5,0.5,0.5H320v-1
	H238.984z"/>
<linearGradient id="SVGID_2_" gradientUnits="userSpaceOnUse" x1="1154.5354" y1="-878.1592" x2="1154.5354" y2="-855.9092" gradientTransform="matrix(1 0 0 -1 -954.5195 -855.1592)">
	<stop  offset="0" style="stop-color:#E8C6B0;stop-opacity:0"/>
	<stop  offset="1" style="stop-color:#E8C6B0"/>
</linearGradient>
<path fill="url(#SVGID_2_)" d="M235.979,0.75H164.05c-1.12,0-2.034,0.912-2.034,2.034v18.181c0,1.122,0.914,2.035,2.034,2.035
	h71.929c1.123,0,2.035-0.913,2.035-2.035V2.784C238.016,1.662,237.104,0.75,235.979,0.75L235.979,0.75z"/>
<g>
	<rect x="-0.031" y="1" fill="#24CFDE" width="80" height="23"/>
	<rect x="0" fill="#2AEDFF" width="80" height="23"/>
	<rect x="1.313" y="1" fill="#24CFDE" width="78.688" height="23"/>
	<rect x="1" y="1" fill="#EEEBE8" width="78" height="22"/>
</g>
</svg>
