<?xml version="1.0" encoding="utf-8"?>
<!-- Generator: Adobe Illustrator 15.0.2, SVG Export Plug-In . SVG Version: 6.00 Build 0)  -->
<!DOCTYPE svg PUBLIC "-//W3C//DTD SVG 1.1//EN" "http://www.w3.org/Graphics/SVG/1.1/DTD/svg11.dtd">
<svg version="1.1" id="Calque_1" xmlns="http://www.w3.org/2000/svg" xmlns:xlink="http://www.w3.org/1999/xlink" x="0px" y="0px"
	 width="320.25px" height="24.25px" viewBox="0 0 320.25 24.25" enable-background="new 0 0 320.25 24.25" xml:space="preserve">
<g id="Effet_NoPatch" display="none">
</g>
<g id="Effet_NoPatch_1_">
</g>
<g opacity="0.5">
	<rect x="240.266" y="1" fill="#24CFDE" width="80" height="23"/>
	<rect x="240.297" fill="#2AEDFF" width="80" height="23"/>
	<rect x="241.609" y="1" fill="#24CFDE" width="78.688" height="23"/>
	<rect x="241.297" y="1" fill="#EEEBE8" width="78" height="22"/>
</g>
<g>
	<rect x="80.016" fill="#24CFDE" width="80" height="23"/>
	<rect x="79.985" y="1" fill="#2AEDFF" width="80" height="23"/>
	<rect x="79.984" fill="#24CFDE" width="78.688" height="23"/>
	<rect x="80.985" y="1" fill="#E8C6B0" width="78" height="22"/>
</g>
<g>
	<rect x="160.314" fill="#24CFDE" width="80" height="23"/>
	<rect x="160.283" y="1" fill="#2AEDFF" width="80" height="23"/>
	<rect x="160.282" fill="#24CFDE" width="78.688" height="23"/>
	<rect x="161.282" y="1" fill="#E8C6B0" width="78" height="22"/>
</g>
<g>
	<rect x="0" y="1.125" fill="#24CFDE" width="80" height="23"/>
	<rect x="0.031" y="0.125" fill="#2AEDFF" width="80" height="23"/>
	<rect x="1.344" y="1.125" fill="#24CFDE" width="78.688" height="23"/>
	<rect x="1.031" y="1.125" fill="#EEEBE8" width="78" height="22"/>
</g>
</svg>
