<?xml version="1.0" encoding="utf-8"?>
<!-- Generator: Adobe Illustrator 15.0.0, SVG Export Plug-In . SVG Version: 6.00 Build 0)  -->
<!DOCTYPE svg PUBLIC "-//W3C//DTD SVG 1.1//EN" "http://www.w3.org/Graphics/SVG/1.1/DTD/svg11.dtd">
<svg version="1.1" id="Calque_1" xmlns="http://www.w3.org/2000/svg" xmlns:xlink="http://www.w3.org/1999/xlink" x="0px" y="0px"
	 width="320px" height="36px" viewBox="0 0 320 36" enable-background="new 0 0 320 36" xml:space="preserve">
<g id="Effet_NoPatch">
</g>
<g>
	<g>
		<path fill="#E65E84" d="M238.689,29.754c0,1.785-1.461,3.246-3.246,3.246h-71.969c-1.785,0-3.25-1.461-3.25-3.246V6.247
			c0-1.786,1.458-3.247,3.25-3.247h71.969c1.785,0,3.246,1.461,3.246,3.247V29.754z"/>
		<path fill="#2679E0" d="M235.454,33.271h-71.99c-1.933,0-3.505-1.584-3.505-3.529V6.258c0-1.946,1.572-3.529,3.505-3.529h71.99
			c1.935,0,3.505,1.583,3.505,3.529v23.484C238.959,31.688,237.387,33.271,235.454,33.271z M163.464,3.271
			c-1.635,0-2.966,1.34-2.966,2.986v23.484c0,1.646,1.331,2.985,2.966,2.985h71.99c1.635,0,2.966-1.34,2.966-2.985V6.258
			c0-1.646-1.331-2.986-2.966-2.986L163.464,3.271L163.464,3.271z"/>
	</g>
	<path fill="#F01B57" d="M158.689,28.754c0,1.785-1.461,4.246-3.246,4.246H83.474c-1.785,0-3.246-1.461-3.246-3.246V6.247
		C80.228,4.461,81.689,3,83.474,3h71.969c1.785,0,3.246,1.461,3.246,3.247V28.754z"/>
	<path fill="#2679E0" d="M155.454,33.271h-71.99c-1.933,0-3.505-1.582-3.505-3.529V6.258c0-1.946,1.572-3.529,3.505-3.529h71.99
		c1.934,0,3.505,1.583,3.505,3.529v22.484C158.958,30.689,157.386,33.271,155.454,33.271z M83.463,3.271
		c-1.635,0-2.966,1.34-2.966,2.986v23.484c0,1.646,1.331,2.985,2.966,2.985h71.99c1.635,0,2.966-2.34,2.966-3.985V6.258
		c0-1.646-1.331-2.986-2.966-2.986L83.463,3.271L83.463,3.271z"/>
	<g opacity="0.5">
		<path d="M318.73,29.754c0,1.785-1.461,3.246-3.246,3.246h-71.969c-1.785,0-3.25-1.461-3.25-3.246V6.247
			c0-1.786,1.459-3.247,3.25-3.247h71.969c1.785,0,3.246,1.461,3.246,3.247V29.754z"/>
		<path d="M315.495,33.271h-71.99c-1.933,0-3.505-1.584-3.505-3.529V6.258c0-1.946,1.572-3.529,3.505-3.529h71.99
			c1.935,0,3.505,1.583,3.505,3.529v23.484C319,31.688,317.428,33.271,315.495,33.271z M243.505,3.271
			c-1.635,0-2.966,1.34-2.966,2.986v23.484c0,1.646,1.331,2.985,2.966,2.985h71.99c1.635,0,2.966-1.34,2.966-2.985V6.258
			c0-1.646-1.331-2.986-2.966-2.986L243.505,3.271L243.505,3.271z"/>
	</g>
</g>
</svg>
